<svg width="128" height="36" viewBox="0 0 128 36" fill="none" xmlns="http://www.w3.org/2000/svg">
<path d="M21.7159 17.7189C21.7316 16.5091 22.057 15.3229 22.6617 14.2707C23.2663 13.2185 24.1307 12.3344 25.1742 11.7008C24.5113 10.7657 23.6367 9.99609 22.6199 9.4532C21.6032 8.91031 20.4723 8.60906 19.317 8.57336C16.8526 8.31788 14.4635 10.0298 13.2077 10.0298C11.9276 10.0298 9.99411 8.59872 7.91204 8.64103C6.56531 8.684 5.25281 9.07079 4.10242 9.76371C2.95204 10.4566 2.00301 11.432 1.34779 12.5949C-1.49046 17.4482 0.626619 24.581 3.34542 28.504C4.7057 30.425 6.29547 32.5709 8.37566 32.4948C10.4112 32.4114 11.1715 31.2128 13.6286 31.2128C16.0629 31.2128 16.7762 32.4948 18.8986 32.4464C21.0829 32.4114 22.4591 30.5168 23.7716 28.5776C24.749 27.2088 25.5011 25.696 26 24.0952C24.731 23.5651 23.6481 22.6778 22.8862 21.5439C22.1244 20.41 21.7173 19.0798 21.7159 17.7189V17.7189Z" fill="white"/>
<path d="M17.7069 5.99302C18.8978 4.58097 19.4846 2.76602 19.3425 0.933594C17.523 1.12234 15.8423 1.98122 14.6352 3.33909C14.045 4.00245 13.593 4.77418 13.305 5.61017C13.017 6.44616 12.8987 7.33002 12.9567 8.21121C13.8668 8.22047 14.7672 8.02564 15.59 7.64142C16.4128 7.25719 17.1366 6.69358 17.7069 5.99302Z" fill="white"/>
<path d="M44.9734 29.1363H40.1809L39.0299 32.4927H37L41.5394 20.0747H43.6485L48.1879 32.4927H46.1234L44.9734 29.1363ZM40.6772 27.5874H44.4761L42.6034 22.1402H42.551L40.6772 27.5874Z" fill="white"/>
<path d="M57.9914 27.9663C57.9914 30.7798 56.4667 32.5874 54.1659 32.5874C53.583 32.6175 53.0033 32.4849 52.4933 32.2048C51.9832 31.9247 51.5633 31.5083 51.2816 31.0034H51.2381V35.4878H49.3564V23.439H51.1778V24.9448H51.2124C51.507 24.4424 51.934 24.0282 52.448 23.7463C52.9619 23.4645 53.5437 23.3255 54.1312 23.3443C56.4578 23.3443 57.9914 25.1607 57.9914 27.9663ZM56.0574 27.9663C56.0574 26.1333 55.0983 24.9282 53.6349 24.9282C52.1972 24.9282 51.2302 26.1587 51.2302 27.9663C51.2302 29.7906 52.1972 31.0122 53.6349 31.0122C55.0983 31.0122 56.0574 29.8159 56.0574 27.9663Z" fill="white"/>
<path d="M68.0812 27.9664C68.0812 30.7799 66.5566 32.5875 64.2557 32.5875C63.6728 32.6176 63.0932 32.485 62.5831 32.2049C62.073 31.9247 61.6531 31.5084 61.3715 31.0035H61.3279V35.4879H59.4463V23.439H61.2676V24.9449H61.3022C61.5968 24.4424 62.0238 24.0282 62.5378 23.7464C63.0518 23.4646 63.6335 23.3256 64.2211 23.3443C66.5477 23.3443 68.0812 25.1607 68.0812 27.9664ZM66.1472 27.9664C66.1472 26.1334 65.1881 24.9283 63.7247 24.9283C62.2871 24.9283 61.32 26.1588 61.32 27.9664C61.32 29.7906 62.2871 31.0123 63.7247 31.0123C65.1881 31.0123 66.1472 29.816 66.1472 27.9664H66.1472Z" fill="white"/>
<path d="M74.7494 29.0328C74.8888 30.2642 76.1001 31.0728 77.7553 31.0728C79.3412 31.0728 80.4823 30.2642 80.4823 29.1538C80.4823 28.1899 79.7941 27.6128 78.1646 27.2173L76.5351 26.8296C74.2263 26.2788 73.1545 25.2124 73.1545 23.4819C73.1545 21.3394 75.045 19.8677 77.7295 19.8677C80.3863 19.8677 82.2077 21.3394 82.269 23.4819H80.3695C80.2558 22.2427 79.2186 21.4946 77.7028 21.4946C76.187 21.4946 75.1498 22.2515 75.1498 23.353C75.1498 24.231 75.8123 24.7476 77.4329 25.143L78.8182 25.479C81.3979 26.0815 82.4697 27.105 82.4697 28.9214C82.4697 31.2446 80.596 32.6997 77.6158 32.6997C74.8275 32.6997 72.9449 31.2788 72.8232 29.0327L74.7494 29.0328Z" fill="white"/>
<path d="M86.53 21.2964V23.439H88.2732V24.9107H86.53V29.9019C86.53 30.6773 86.8791 31.0386 87.6454 31.0386C87.8523 31.0351 88.0589 31.0207 88.2643 30.9956V32.4585C87.9198 32.5221 87.5696 32.5509 87.2192 32.5445C85.3633 32.5445 84.6395 31.856 84.6395 30.1001V24.9107H83.3066V23.439H84.6395V21.2964H86.53Z" fill="white"/>
<path d="M89.2832 27.9664C89.2832 25.1177 90.9819 23.3277 93.6308 23.3277C96.2886 23.3277 97.9794 25.1177 97.9794 27.9664C97.9794 30.8228 96.2975 32.605 93.6308 32.605C90.9651 32.605 89.2832 30.8228 89.2832 27.9664ZM96.0622 27.9664C96.0622 26.0123 95.1555 24.8589 93.6308 24.8589C92.1061 24.8589 91.2004 26.0211 91.2004 27.9664C91.2004 29.9283 92.1061 31.0728 93.6308 31.0728C95.1555 31.0728 96.0622 29.9283 96.0622 27.9664H96.0622Z" fill="white"/>
<path d="M99.5313 23.439H101.326V24.98H101.369C101.491 24.4987 101.776 24.0734 102.178 23.7755C102.579 23.4776 103.073 23.3254 103.574 23.3443C103.791 23.3435 104.007 23.3668 104.219 23.4136V25.1519C103.945 25.0693 103.66 25.0314 103.374 25.0396C103.1 25.0287 102.828 25.0763 102.575 25.1791C102.322 25.282 102.094 25.4378 101.908 25.6357C101.722 25.8335 101.581 26.0689 101.496 26.3256C101.41 26.5822 101.382 26.8541 101.413 27.1226V32.4927H99.5312L99.5313 23.439Z" fill="white"/>
<path d="M112.894 29.8336C112.641 31.4771 111.02 32.605 108.947 32.605C106.28 32.605 104.625 30.8404 104.625 28.0093C104.625 25.1695 106.289 23.3277 108.868 23.3277C111.404 23.3277 112.999 25.0484 112.999 27.7935V28.4302H106.524V28.5425C106.495 28.8757 106.537 29.2114 106.648 29.5272C106.76 29.8431 106.938 30.1319 107.171 30.3744C107.405 30.617 107.687 30.8077 108.001 30.934C108.315 31.0603 108.652 31.1193 108.99 31.107C109.435 31.1481 109.881 31.0464 110.263 30.817C110.644 30.5875 110.94 30.2426 111.107 29.8335L112.894 29.8336ZM106.533 27.1314H111.116C111.133 26.8318 111.087 26.532 110.981 26.2508C110.875 25.9696 110.712 25.713 110.5 25.4973C110.289 25.2815 110.035 25.1112 109.754 24.997C109.473 24.8827 109.172 24.8271 108.868 24.8336C108.561 24.8318 108.258 24.8899 107.974 25.0046C107.691 25.1194 107.433 25.2884 107.216 25.5021C106.999 25.7157 106.827 25.9697 106.71 26.2493C106.592 26.529 106.533 26.8288 106.533 27.1314V27.1314Z" fill="white"/>
<path d="M42.6287 15.129C43.062 15.129 43.4173 15.0943 43.6947 15.025C43.9807 14.9557 44.2623 14.856 44.5397 14.726L44.8127 15.688C44.5093 15.8353 44.1757 15.9437 43.8117 16.013C43.4563 16.0823 43.0187 16.117 42.4987 16.117C41.9613 16.117 41.4543 16.026 40.9777 15.844C40.501 15.662 40.085 15.3933 39.7297 15.038C39.383 14.6827 39.1057 14.245 38.8977 13.725C38.6983 13.1963 38.5987 12.5897 38.5987 11.905C38.5987 11.2377 38.6983 10.644 38.8977 10.124C39.097 9.59533 39.37 9.15333 39.7167 8.798C40.072 8.434 40.4923 8.161 40.9777 7.979C41.463 7.78833 41.9917 7.693 42.5637 7.693C43.101 7.693 43.543 7.73633 43.8897 7.823C44.2363 7.90967 44.557 8.02667 44.8517 8.174L44.5657 9.11C44.401 9.04067 44.245 8.98 44.0977 8.928C43.959 8.86733 43.816 8.81967 43.6687 8.785C43.53 8.75033 43.3827 8.72433 43.2267 8.707C43.0793 8.68967 42.9103 8.681 42.7197 8.681C42.3383 8.681 41.9743 8.74167 41.6277 8.863C41.2897 8.97567 40.9907 9.162 40.7307 9.422C40.4793 9.682 40.2757 10.02 40.1197 10.436C39.9723 10.8433 39.8987 11.3373 39.8987 11.918C39.8987 12.5073 39.9723 13.0057 40.1197 13.413C40.267 13.8203 40.462 14.1497 40.7047 14.401C40.956 14.6523 41.2463 14.8387 41.5757 14.96C41.905 15.0727 42.256 15.129 42.6287 15.129ZM51.7624 12.88C51.7624 13.3913 51.6844 13.8507 51.5284 14.258C51.3724 14.6567 51.1557 14.9947 50.8784 15.272C50.6097 15.5493 50.2934 15.7617 49.9294 15.909C49.5654 16.0477 49.1711 16.117 48.7464 16.117C48.3217 16.117 47.9274 16.052 47.5634 15.922C47.2081 15.7833 46.8961 15.584 46.6274 15.324C46.3674 15.0553 46.1594 14.7303 46.0034 14.349C45.8561 13.959 45.7824 13.5127 45.7824 13.01C45.7824 12.4987 45.8604 12.0437 46.0164 11.645C46.1724 11.2463 46.3847 10.9127 46.6534 10.644C46.9307 10.3667 47.2514 10.1587 47.6154 10.02C47.9794 9.87267 48.3737 9.799 48.7984 9.799C49.2231 9.799 49.6131 9.864 49.9684 9.994C50.3324 10.124 50.6444 10.319 50.9044 10.579C51.1731 10.839 51.3811 11.164 51.5284 11.554C51.6844 11.9353 51.7624 12.3773 51.7624 12.88ZM50.5664 12.945C50.5664 12.5377 50.5144 12.191 50.4104 11.905C50.3064 11.619 50.1677 11.385 49.9944 11.203C49.8297 11.021 49.6391 10.891 49.4224 10.813C49.2057 10.7263 48.9847 10.683 48.7594 10.683C48.5341 10.683 48.3131 10.7177 48.0964 10.787C47.8797 10.8563 47.6891 10.9777 47.5244 11.151C47.3597 11.3243 47.2254 11.5583 47.1214 11.853C47.0261 12.139 46.9784 12.503 46.9784 12.945C46.9784 13.3523 47.0304 13.7033 47.1344 13.998C47.2384 14.284 47.3727 14.518 47.5374 14.7C47.7107 14.882 47.9057 15.0163 48.1224 15.103C48.3391 15.1897 48.5601 15.233 48.7854 15.233C49.0107 15.233 49.2317 15.1983 49.4484 15.129C49.6651 15.051 49.8557 14.9253 50.0204 14.752C50.1851 14.57 50.3151 14.336 50.4104 14.05C50.5144 13.7553 50.5664 13.387 50.5664 12.945ZM54.2985 16H53.1545V9.89H54.0385L54.2075 10.735C54.4935 10.449 54.8012 10.2237 55.1305 10.059C55.4598 9.88567 55.8542 9.799 56.3135 9.799C56.7468 9.799 57.1022 9.89 57.3795 10.072C57.6568 10.2453 57.8648 10.488 58.0035 10.8C58.3068 10.4793 58.6405 10.2323 59.0045 10.059C59.3685 9.88567 59.7715 9.799 60.2135 9.799C60.8375 9.799 61.3055 9.97667 61.6175 10.332C61.9382 10.6787 62.0985 11.164 62.0985 11.788V16H60.9545V11.996C60.9545 11.5887 60.8678 11.2767 60.6945 11.06C60.5212 10.8433 60.2352 10.735 59.8365 10.735C59.2472 10.735 58.6968 10.9993 58.1855 11.528C58.1942 11.5713 58.1985 11.6147 58.1985 11.658C58.1985 11.7013 58.1985 11.7447 58.1985 11.788V16H57.0545V11.996C57.0545 11.5887 56.9678 11.2767 56.7945 11.06C56.6212 10.8433 56.3352 10.735 55.9365 10.735C55.3472 10.735 54.8012 11.0123 54.2985 11.567V16ZM64.0514 16V9.89H65.1954V16H64.0514ZM64.6234 8.317C64.424 8.317 64.2507 8.252 64.1034 8.122C63.9647 7.98333 63.8954 7.81433 63.8954 7.615C63.8954 7.41567 63.9647 7.24667 64.1034 7.108C64.2507 6.96933 64.424 6.9 64.6234 6.9C64.814 6.9 64.983 6.96933 65.1304 7.108C65.2777 7.24667 65.3514 7.41567 65.3514 7.615C65.3514 7.81433 65.2777 7.98333 65.1304 8.122C64.983 8.252 64.814 8.317 64.6234 8.317ZM68.2126 16H67.0686V9.89H67.9656L68.1346 10.735C68.4379 10.4317 68.7542 10.202 69.0836 10.046C69.4216 9.88133 69.8072 9.799 70.2406 9.799C70.8646 9.799 71.3542 9.97667 71.7096 10.332C72.0649 10.6787 72.2426 11.164 72.2426 11.788V16H71.0986V11.957C71.0986 11.5843 70.9989 11.2897 70.7996 11.073C70.6089 10.8477 70.3142 10.735 69.9156 10.735C69.3089 10.735 68.7412 11.008 68.2126 11.554V16ZM73.8584 11.918C73.8584 11.58 73.9191 11.281 74.0404 11.021C74.1618 10.7523 74.3308 10.527 74.5474 10.345C74.7728 10.163 75.0371 10.0287 75.3404 9.942C75.6438 9.84667 75.9731 9.799 76.3284 9.799C76.4584 9.799 76.5841 9.80767 76.7054 9.825C76.8268 9.84233 76.9481 9.864 77.0694 9.89H79.7084V10.735H79.3054L78.2654 10.592C78.4301 10.7653 78.5558 10.9647 78.6424 11.19C78.7378 11.4153 78.7854 11.6537 78.7854 11.905C78.7854 12.243 78.7248 12.5463 78.6034 12.815C78.4821 13.075 78.3131 13.296 78.0964 13.478C77.8798 13.66 77.6198 13.7987 77.3164 13.894C77.0131 13.9807 76.6838 14.024 76.3284 14.024C76.0598 14.024 75.8258 14.0067 75.6264 13.972C75.4271 14.0413 75.2884 14.1323 75.2104 14.245C75.1324 14.349 75.0934 14.4617 75.0934 14.583C75.0934 14.7823 75.1584 14.9167 75.2884 14.986C75.4271 15.0553 75.6091 15.09 75.8344 15.09H77.4464C78.1224 15.09 78.6381 15.246 78.9934 15.558C79.3574 15.8613 79.5394 16.2773 79.5394 16.806C79.5394 17.144 79.4658 17.4473 79.3184 17.716C79.1711 17.9847 78.9588 18.2143 78.6814 18.405C78.4128 18.5957 78.0834 18.7387 77.6934 18.834C77.3034 18.938 76.8658 18.99 76.3804 18.99C75.4964 18.99 74.7901 18.8297 74.2614 18.509C73.7414 18.197 73.4814 17.7333 73.4814 17.118C73.4814 16.7973 73.5811 16.5287 73.7804 16.312C73.9884 16.0953 74.2571 15.9307 74.5864 15.818C74.4131 15.6967 74.2831 15.571 74.1964 15.441C74.1098 15.3023 74.0664 15.1203 74.0664 14.895C74.0664 14.6263 74.1444 14.3967 74.3004 14.206C74.4651 14.0153 74.6861 13.8637 74.9634 13.751C74.6168 13.595 74.3438 13.3697 74.1444 13.075C73.9538 12.7717 73.8584 12.386 73.8584 11.918ZM75.2494 16C74.8074 16.1993 74.5864 16.5113 74.5864 16.936C74.5864 17.6987 75.2018 18.08 76.4324 18.08C76.7964 18.08 77.1041 18.0453 77.3554 17.976C77.6068 17.9067 77.8104 17.8157 77.9664 17.703C78.1224 17.5903 78.2351 17.4647 78.3044 17.326C78.3824 17.1873 78.4214 17.0443 78.4214 16.897C78.4214 16.533 78.2958 16.2903 78.0444 16.169C77.8018 16.0563 77.4941 16 77.1214 16H75.2494ZM77.6284 11.944C77.6284 11.4847 77.5071 11.1467 77.2644 10.93C77.0304 10.7133 76.7184 10.605 76.3284 10.605C75.9384 10.605 75.6221 10.7133 75.3794 10.93C75.1454 11.1467 75.0284 11.4673 75.0284 11.892C75.0284 12.3427 75.1454 12.6763 75.3794 12.893C75.6221 13.101 75.9384 13.205 76.3284 13.205C76.7184 13.205 77.0304 13.101 77.2644 12.893C77.5071 12.685 77.6284 12.3687 77.6284 11.944ZM87.2965 11.034C87.0105 10.8953 86.7505 10.8 86.5165 10.748C86.2825 10.696 86.0485 10.67 85.8145 10.67C85.3985 10.67 85.0908 10.748 84.8915 10.904C84.6921 11.0513 84.5925 11.2507 84.5925 11.502C84.5925 11.684 84.6618 11.8443 84.8005 11.983C84.9391 12.113 85.2295 12.243 85.6715 12.373L86.0615 12.49C86.6421 12.6633 87.0798 12.8887 87.3745 13.166C87.6778 13.4347 87.8295 13.803 87.8295 14.271C87.8295 14.8257 87.6215 15.272 87.2055 15.61C86.7981 15.948 86.2261 16.117 85.4895 16.117C85.0995 16.117 84.7225 16.0823 84.3585 16.013C84.0031 15.9437 83.6955 15.8483 83.4355 15.727L83.7085 14.83C83.9598 14.9513 84.2328 15.051 84.5275 15.129C84.8221 15.1983 85.1211 15.233 85.4245 15.233C85.8145 15.233 86.1221 15.1637 86.3475 15.025C86.5815 14.8863 86.6985 14.6567 86.6985 14.336C86.6985 14.0587 86.5988 13.8637 86.3995 13.751C86.2001 13.6297 85.9141 13.5127 85.5415 13.4L85.1385 13.27C84.5751 13.088 84.1548 12.8627 83.8775 12.594C83.6088 12.3167 83.4745 11.9613 83.4745 11.528C83.4745 11.268 83.5308 11.0297 83.6435 10.813C83.7561 10.5963 83.9078 10.4143 84.0985 10.267C84.2978 10.1197 84.5318 10.007 84.8005 9.929C85.0691 9.84233 85.3638 9.799 85.6845 9.799C85.9878 9.799 86.2998 9.82933 86.6205 9.89C86.9498 9.942 87.2618 10.033 87.5565 10.163L87.2965 11.034ZM94.7614 12.88C94.7614 13.3913 94.6834 13.8507 94.5274 14.258C94.3714 14.6567 94.1547 14.9947 93.8774 15.272C93.6087 15.5493 93.2924 15.7617 92.9284 15.909C92.5644 16.0477 92.1701 16.117 91.7454 16.117C91.3207 16.117 90.9264 16.052 90.5624 15.922C90.2071 15.7833 89.8951 15.584 89.6264 15.324C89.3664 15.0553 89.1584 14.7303 89.0024 14.349C88.8551 13.959 88.7814 13.5127 88.7814 13.01C88.7814 12.4987 88.8594 12.0437 89.0154 11.645C89.1714 11.2463 89.3837 10.9127 89.6524 10.644C89.9297 10.3667 90.2504 10.1587 90.6144 10.02C90.9784 9.87267 91.3727 9.799 91.7974 9.799C92.2221 9.799 92.6121 9.864 92.9674 9.994C93.3314 10.124 93.6434 10.319 93.9034 10.579C94.1721 10.839 94.3801 11.164 94.5274 11.554C94.6834 11.9353 94.7614 12.3773 94.7614 12.88ZM93.5654 12.945C93.5654 12.5377 93.5134 12.191 93.4094 11.905C93.3054 11.619 93.1667 11.385 92.9934 11.203C92.8287 11.021 92.6381 10.891 92.4214 10.813C92.2047 10.7263 91.9837 10.683 91.7584 10.683C91.5331 10.683 91.3121 10.7177 91.0954 10.787C90.8787 10.8563 90.6881 10.9777 90.5234 11.151C90.3587 11.3243 90.2244 11.5583 90.1204 11.853C90.0251 12.139 89.9774 12.503 89.9774 12.945C89.9774 13.3523 90.0294 13.7033 90.1334 13.998C90.2374 14.284 90.3717 14.518 90.5364 14.7C90.7097 14.882 90.9047 15.0163 91.1214 15.103C91.3381 15.1897 91.5591 15.233 91.7844 15.233C92.0097 15.233 92.2307 15.1983 92.4474 15.129C92.6641 15.051 92.8547 14.9253 93.0194 14.752C93.1841 14.57 93.3141 14.336 93.4094 14.05C93.5134 13.7553 93.5654 13.387 93.5654 12.945ZM101.757 12.88C101.757 13.3913 101.679 13.8507 101.523 14.258C101.367 14.6567 101.15 14.9947 100.873 15.272C100.604 15.5493 100.288 15.7617 99.9235 15.909C99.5595 16.0477 99.1652 16.117 98.7405 16.117C98.3159 16.117 97.9215 16.052 97.5575 15.922C97.2022 15.7833 96.8902 15.584 96.6215 15.324C96.3615 15.0553 96.1535 14.7303 95.9975 14.349C95.8502 13.959 95.7765 13.5127 95.7765 13.01C95.7765 12.4987 95.8545 12.0437 96.0105 11.645C96.1665 11.2463 96.3789 10.9127 96.6475 10.644C96.9249 10.3667 97.2455 10.1587 97.6095 10.02C97.9735 9.87267 98.3679 9.799 98.7925 9.799C99.2172 9.799 99.6072 9.864 99.9625 9.994C100.327 10.124 100.639 10.319 100.899 10.579C101.167 10.839 101.375 11.164 101.523 11.554C101.679 11.9353 101.757 12.3773 101.757 12.88ZM100.561 12.945C100.561 12.5377 100.509 12.191 100.405 11.905C100.301 11.619 100.162 11.385 99.9885 11.203C99.8239 11.021 99.6332 10.891 99.4165 10.813C99.1999 10.7263 98.9789 10.683 98.7535 10.683C98.5282 10.683 98.3072 10.7177 98.0905 10.787C97.8739 10.8563 97.6832 10.9777 97.5185 11.151C97.3539 11.3243 97.2195 11.5583 97.1155 11.853C97.0202 12.139 96.9725 12.503 96.9725 12.945C96.9725 13.3523 97.0245 13.7033 97.1285 13.998C97.2325 14.284 97.3669 14.518 97.5315 14.7C97.7049 14.882 97.8999 15.0163 98.1165 15.103C98.3332 15.1897 98.5542 15.233 98.7795 15.233C99.0049 15.233 99.2259 15.1983 99.4425 15.129C99.6592 15.051 99.8499 14.9253 100.015 14.752C100.179 14.57 100.309 14.336 100.405 14.05C100.509 13.7553 100.561 13.387 100.561 12.945ZM104.293 16H103.149V9.89H104.046L104.215 10.735C104.518 10.4317 104.834 10.202 105.164 10.046C105.502 9.88133 105.887 9.799 106.321 9.799C106.945 9.799 107.434 9.97667 107.79 10.332C108.145 10.6787 108.323 11.164 108.323 11.788V16H107.179V11.957C107.179 11.5843 107.079 11.2897 106.88 11.073C106.689 10.8477 106.394 10.735 105.996 10.735C105.389 10.735 104.821 11.008 104.293 11.554V16ZM118.578 12.88C118.578 13.3913 118.5 13.8507 118.344 14.258C118.188 14.6567 117.971 14.9947 117.694 15.272C117.425 15.5493 117.109 15.7617 116.745 15.909C116.381 16.0477 115.986 16.117 115.562 16.117C115.137 16.117 114.743 16.052 114.379 15.922C114.023 15.7833 113.711 15.584 113.443 15.324C113.183 15.0553 112.975 14.7303 112.819 14.349C112.671 13.959 112.598 13.5127 112.598 13.01C112.598 12.4987 112.676 12.0437 112.832 11.645C112.988 11.2463 113.2 10.9127 113.469 10.644C113.746 10.3667 114.067 10.1587 114.431 10.02C114.795 9.87267 115.189 9.799 115.614 9.799C116.038 9.799 116.428 9.864 116.784 9.994C117.148 10.124 117.46 10.319 117.72 10.579C117.988 10.839 118.196 11.164 118.344 11.554C118.5 11.9353 118.578 12.3773 118.578 12.88ZM117.382 12.945C117.382 12.5377 117.33 12.191 117.226 11.905C117.122 11.619 116.983 11.385 116.81 11.203C116.645 11.021 116.454 10.891 116.238 10.813C116.021 10.7263 115.8 10.683 115.575 10.683C115.349 10.683 115.128 10.7177 114.912 10.787C114.695 10.8563 114.504 10.9777 114.34 11.151C114.175 11.3243 114.041 11.5583 113.937 11.853C113.841 12.139 113.794 12.503 113.794 12.945C113.794 13.3523 113.846 13.7033 113.95 13.998C114.054 14.284 114.188 14.518 114.353 14.7C114.526 14.882 114.721 15.0163 114.938 15.103C115.154 15.1897 115.375 15.233 115.601 15.233C115.826 15.233 116.047 15.1983 116.264 15.129C116.48 15.051 116.671 14.9253 116.836 14.752C117 14.57 117.13 14.336 117.226 14.05C117.33 13.7553 117.382 13.387 117.382 12.945ZM121.114 16H119.97V9.89H120.867L121.036 10.735C121.339 10.4317 121.656 10.202 121.985 10.046C122.323 9.88133 122.709 9.799 123.142 9.799C123.766 9.799 124.256 9.97667 124.611 10.332C124.966 10.6787 125.144 11.164 125.144 11.788V16H124V11.957C124 11.5843 123.9 11.2897 123.701 11.073C123.51 10.8477 123.216 10.735 122.817 10.735C122.21 10.735 121.643 11.008 121.114 11.554V16Z" fill="white"/>
</svg>
