<svg width="24" height="24" viewBox="0 0 24 24" fill="none" xmlns="http://www.w3.org/2000/svg">
<g clip-path="url(#clip0_81_542)">
<path d="M14.625 14.25L20.175 15.7875H15.9375L10.125 14.25H14.625Z" fill="#C94747"/>
<path d="M1.875 8.25H10.125V22.5H1.875V8.25Z" fill="#F9F3D9"/>
<path d="M10.125 8.25H14.625V14.25H10.125V8.25Z" fill="#DBB471"/>
<path d="M7.87461 3L0.412109 8.25H10.1246L7.87461 3Z" fill="#ED4C5C"/>
<path d="M10.875 3.75H12V6.75H10.875V3.75Z" fill="#D0D0D0"/>
<path d="M12 3.75H12.75V7.125H12V3.75Z" fill="#94989B"/>
<path d="M7.875 3L16.125 8.25H10.125L7.875 3Z" fill="#C94747"/>
<path d="M10.5 3H12.375V3.75H10.5V3Z" fill="#D0D0D0"/>
<path d="M12.375 3H13.125V3.75H12.375V3Z" fill="#94989B"/>
<path d="M4.7998 10.425H7.1998V12.8251H4.7998V10.425Z" fill="#D6EEF0"/>
<path d="M4.5 10.125V13.125H7.5V10.125H4.5ZM7.2 10.425V11.475H6.15V10.425H7.2ZM5.85 10.425V11.475H4.8V10.425H5.85ZM4.8 12.825V11.775H5.85V12.825H4.8ZM6.15 12.825V11.775H7.2V12.825H6.15Z" fill="#89664C"/>
<path d="M11.4746 10.2749H13.2746V12.9749H11.4746V10.2749Z" fill="#D6EEF0"/>
<path d="M11.3252 10.125V13.125H13.4252V10.125H11.3252ZM11.6252 10.425H12.2252V11.475H11.6252V10.425ZM11.6252 12.825V11.775H12.2252V12.825H11.6252ZM13.1252 12.825H12.5252V11.775H13.1252V12.825ZM13.1252 11.475H12.5252V10.425H13.1252V11.475Z" fill="#89664C"/>
<path d="M5.1377 18.4126H7.4627V22.5001H5.1377V18.4126Z" fill="#89664C"/>
<path d="M7.2002 17.8125H7.8002V18.4125H7.2002V17.8125Z" fill="#89664C"/>
<path d="M4.53711 18.4126H5.13711V22.5001H4.53711V18.4126Z" fill="#594640"/>
<path d="M4.27539 17.8125H7.20039V18.4125H4.27539V17.8125Z" fill="#DBB471"/>
<path d="M6.975 20.4C7.09926 20.4 7.2 20.2992 7.2 20.175C7.2 20.0507 7.09926 19.95 6.975 19.95C6.85074 19.95 6.75 20.0507 6.75 20.175C6.75 20.2992 6.85074 20.4 6.975 20.4Z" fill="#F9F3D9"/>
<path d="M0.0371094 22.5H19.5371V24H0.0371094V22.5Z" fill="#83BF4F"/>
<path d="M14.9629 15.7876H18.4504V22.5001H14.9629V15.7876Z" fill="#DBB471"/>
<path d="M10.125 15.7876H14.9625V22.5001H10.125V15.7876Z" fill="#F9F3D9"/>
<path d="M10.125 14.25H1.875L0 15.7875H15.9375L10.125 14.25Z" fill="#ED4C5C"/>
<path d="M10.6123 17.925H13.0123V20.3251H10.6123V17.925Z" fill="#D6EEF0"/>
<path d="M10.3125 17.625V20.625H13.3125V17.625H10.3125ZM13.0125 17.925V18.975H11.9625V17.925H13.0125ZM11.6625 17.925V18.975H10.6125V17.925H11.6625ZM10.6125 20.325V19.275H11.6625V20.325H10.6125ZM11.9625 20.325V19.275H13.0125V20.325H11.9625Z" fill="#89664C"/>
<path d="M15.7871 17.7749H17.5871V20.4749H15.7871V17.7749Z" fill="#D6EEF0"/>
<path d="M15.6377 17.625V20.625H17.7377V17.625H15.6377ZM15.9377 17.925H16.5377V18.975H15.9377V17.925ZM15.9377 20.325V19.275H16.5377V20.325H15.9377ZM17.4377 20.325H16.8377V19.275H17.4377V20.325ZM17.4377 18.975H16.8377V17.925H17.4377V18.975Z" fill="#89664C"/>
<path d="M19.4629 22.5H23.9629V24H19.4629V22.5Z" fill="#699635"/>
<path d="M19.5752 12.75H21.0752V22.5H19.5752V12.75Z" fill="#D3976E"/>
<path d="M21.0754 12.75H20.5129V12.9375C20.5129 13.8 20.2129 13.8 20.2129 14.6625C20.2129 15.525 20.5129 15.525 20.5129 16.35C20.5129 17.2125 20.2129 17.2125 20.2129 18.075C20.2129 18.9375 20.5129 18.9375 20.5129 19.7625C20.5129 20.625 20.2129 20.625 20.2129 21.45C20.2129 21.975 20.2879 22.2 20.3629 22.4625H21.0379C21.0754 22.5 21.0754 12.75 21.0754 12.75Z" fill="#89664C"/>
<path d="M19.9501 1.0874C19.2376 2.0999 18.3751 0.262402 17.2501 1.8374C16.1251 3.4124 16.7251 4.7999 17.0626 5.8124C17.7376 7.8749 16.3501 8.5124 17.2876 10.2374C18.1876 11.9624 16.8751 12.7874 18.6001 13.7249C20.3251 14.6624 19.4626 12.6374 21.2251 13.8374C22.9876 15.0374 23.2126 13.0124 23.0251 12.2624C22.6501 10.8749 23.6626 10.5374 23.9626 9.3749C24.4501 7.3124 22.8001 6.1874 23.3251 4.2374C23.7751 2.3249 22.0876 -2.0251 19.9501 1.0874Z" fill="#83BF4F"/>
<path d="M23.2504 4.275C23.6629 2.8125 22.8004 0 21.4504 0C21.4504 0 22.3504 1.2 21.0754 2.7C19.8004 4.2 22.1629 4.95 21.0754 6.3375C19.9879 7.725 22.0879 9.075 21.2629 10.1625C20.2504 11.5125 18.6379 11.325 19.5754 13.9125V13.95C19.9504 13.725 19.9879 13.0875 21.1504 13.875C22.9129 15.075 23.1379 13.05 22.9504 12.3C22.5754 10.9125 23.5879 10.575 23.8879 9.4125C24.4129 7.35 22.7629 6.225 23.2504 4.275Z" fill="#699635"/>
<path d="M21.6753 4.1999C21.4128 4.1999 21.8253 3.9749 21.8253 3.6749C21.8253 3.3749 21.4128 3.1499 21.6753 3.1499C21.9378 3.1499 22.2003 3.3749 22.2003 3.6749C22.2003 3.9749 21.9753 4.1999 21.6753 4.1999Z" fill="#83BF4F"/>
<path d="M22.3499 8.7373C21.9374 8.7373 22.5749 8.3998 22.5749 7.9873C22.5749 7.5748 21.9374 7.2373 22.3499 7.2373C22.7624 7.2373 23.0999 7.5748 23.0999 7.9873C23.0999 8.3998 22.7624 8.7373 22.3499 8.7373Z" fill="#83BF4F"/>
<path d="M21.6743 12.5625C21.3744 12.5625 21.6743 12.3 21.6743 12C21.6743 11.7 21.3744 11.4375 21.6743 11.4375C21.9743 11.4375 22.2368 11.7 22.2368 12C22.2368 12.3 21.9743 12.5625 21.6743 12.5625Z" fill="#83BF4F"/>
<path d="M18.4873 4.53735C18.7873 4.53735 18.4123 4.79985 18.4123 5.09985C18.4123 5.39985 18.8248 5.66235 18.4873 5.66235C18.1498 5.66235 17.9248 5.39985 17.9248 5.09985C17.9248 4.79985 18.1873 4.53735 18.4873 4.53735Z" fill="#83BF4F"/>
<path d="M19.7246 2.3999C20.1371 2.3999 19.5371 2.7374 19.5371 3.1499C19.5371 3.5624 20.1746 3.8999 19.7246 3.8999C19.3121 3.8999 18.9746 3.5624 18.9746 3.1499C18.9746 2.7374 19.2746 2.3999 19.7246 2.3999Z" fill="#83BF4F"/>
<path d="M19.3877 8.1001C20.0252 8.1001 19.1252 8.5876 19.1252 9.2251C19.1252 9.8626 19.9877 10.3501 19.3877 10.3501C18.7502 10.3501 18.2627 9.8626 18.2627 9.2251C18.2627 8.5876 18.7502 8.1001 19.3877 8.1001Z" fill="#699635"/>
<path d="M19.7256 6.0376C20.0256 6.0376 19.7256 6.3001 19.7256 6.6001C19.7256 6.9001 20.0256 7.1626 19.7256 7.1626C19.4256 7.1626 19.1631 6.9001 19.1631 6.6001C19.1631 6.3001 19.4256 6.0376 19.7256 6.0376Z" fill="#699635"/>
<path d="M21.7871 21.375H21.9371V22.5H21.7871V21.375Z" fill="#83BF4F"/>
<path d="M21.4502 20.2124V21.0749C21.4502 21.2249 21.5627 21.3749 21.7502 21.3749H22.0502V20.7749C22.0127 20.3624 21.4502 20.2124 21.4502 20.2124Z" fill="#C94747"/>
<path d="M22.3129 20.2124V21.0749C22.3129 21.2249 22.2004 21.3749 22.0129 21.3749H21.7129V20.7749C21.7129 20.3624 22.3129 20.2124 22.3129 20.2124Z" fill="#ED4C5C"/>
<path d="M23.4375 20.5125H23.5875V22.4999H23.4375V20.5125Z" fill="#83BF4F"/>
<path d="M23.0996 19.3125V20.175C23.0996 20.325 23.2121 20.475 23.3996 20.475H23.6996V19.875C23.6621 19.5 23.0996 19.3125 23.0996 19.3125Z" fill="#C94747"/>
<path d="M23.9623 19.3125V20.175C23.9623 20.325 23.8498 20.475 23.6623 20.475H23.3623V19.875C23.3623 19.5 23.9623 19.3125 23.9623 19.3125Z" fill="#ED4C5C"/>
<path d="M22.0127 18.825V19.6874C22.0127 19.8374 22.1252 19.9874 22.3127 19.9874H22.6127V19.3874C22.6127 19.0125 22.0127 18.825 22.0127 18.825Z" fill="#F2B200"/>
<path d="M22.9125 18.825V19.6874C22.9125 19.8374 22.8 19.9874 22.6125 19.9874H22.3125V19.3874C22.3125 19.0125 22.9125 18.825 22.9125 18.825Z" fill="#FFCE31"/>
<path d="M22.3877 20.0249H22.5377V22.4999H22.3877V20.0249Z" fill="#83BF4F"/>
<path d="M20.8125 19.2749V20.1374C20.8125 20.2874 20.9625 20.4374 21.1125 20.4374H21.375V19.8749C21.375 19.4249 20.8125 19.2749 20.8125 19.2749Z" fill="#F2B200"/>
<path d="M21.6752 19.2749V20.1374C21.6752 20.2874 21.5627 20.4374 21.3752 20.4374H21.0752V19.8749C21.0752 19.4249 21.6752 19.2749 21.6752 19.2749Z" fill="#FFCE31"/>
<path d="M21.1504 20.4375H21.3004V22.5H21.1504V20.4375Z" fill="#83BF4F"/>
<path d="M18.375 21.375H18.525V22.5H18.375V21.375Z" fill="#83BF4F"/>
<path d="M18 20.2124V21.0749C18 21.2249 18.1125 21.3749 18.3 21.3749H18.6V20.7749C18.6 20.3624 18 20.2124 18 20.2124Z" fill="#C94747"/>
<path d="M18.8998 20.2124V21.0749C18.8998 21.2249 18.7873 21.3749 18.5998 21.3749H18.2998V20.7749C18.2998 20.3624 18.8998 20.2124 18.8998 20.2124Z" fill="#ED4C5C"/>
<path d="M20.0254 20.5125H20.1754V22.4999H20.0254V20.5125Z" fill="#83BF4F"/>
<path d="M19.6504 19.3125V20.175C19.6504 20.325 19.7629 20.475 19.9504 20.475H20.2504V19.875C20.2504 19.5 19.6504 19.3125 19.6504 19.3125Z" fill="#C94747"/>
<path d="M20.5502 19.3125V20.175C20.5502 20.325 20.4377 20.475 20.2502 20.475H19.9502V19.875C19.9502 19.5 20.5502 19.3125 20.5502 19.3125Z" fill="#ED4C5C"/>
<path d="M18.5996 18.825V19.6874C18.5996 19.8374 18.7121 19.9874 18.8996 19.9874H19.1996V19.3874C19.1996 19.0125 18.5996 18.825 18.5996 18.825Z" fill="#F2B200"/>
<path d="M19.4623 18.825V19.6874C19.4623 19.8374 19.3498 19.9874 19.1623 19.9874H18.8623V19.3874C18.8998 19.0125 19.4623 18.825 19.4623 18.825Z" fill="#FFCE31"/>
<path d="M18.9746 20.0249H19.1246V22.4999H18.9746V20.0249Z" fill="#83BF4F"/>
<path d="M17.3623 19.2749V20.1374C17.3623 20.2874 17.4748 20.4374 17.6623 20.4374H17.9623V19.8749C17.9623 19.4249 17.3623 19.2749 17.3623 19.2749Z" fill="#C94747"/>
<path d="M18.2621 19.2749V20.1374C18.2621 20.2874 18.1496 20.4374 17.9621 20.4374H17.6621V19.8749C17.6621 19.4249 18.2621 19.2749 18.2621 19.2749Z" fill="#ED4C5C"/>
<path d="M17.7373 20.4375H17.8873V22.5H17.7373V20.4375Z" fill="#83BF4F"/>
</g>
<defs>
<clipPath id="clip0_81_542">
<rect width="24" height="24" fill="white"/>
</clipPath>
</defs>
</svg>
