<svg width="127" height="38" viewBox="0 0 127 38" fill="none" xmlns="http://www.w3.org/2000/svg">
<path d="M42.615 11.129C43.0483 11.129 43.4037 11.0943 43.681 11.025C43.967 10.9557 44.2487 10.856 44.526 10.726L44.799 11.688C44.4957 11.8353 44.162 11.9437 43.798 12.013C43.4427 12.0823 43.005 12.117 42.485 12.117C41.9477 12.117 41.4407 12.026 40.964 11.844C40.4873 11.662 40.0713 11.3933 39.716 11.038C39.3693 10.6827 39.092 10.245 38.884 9.725C38.6847 9.19633 38.585 8.58967 38.585 7.905C38.585 7.23767 38.6847 6.644 38.884 6.124C39.0833 5.59533 39.3563 5.15333 39.703 4.798C40.0583 4.434 40.4787 4.161 40.964 3.979C41.4493 3.78833 41.978 3.693 42.55 3.693C43.0873 3.693 43.5293 3.73633 43.876 3.823C44.2227 3.90967 44.5433 4.02667 44.838 4.174L44.552 5.11C44.3873 5.04067 44.2313 4.98 44.084 4.928C43.9453 4.86733 43.8023 4.81967 43.655 4.785C43.5163 4.75033 43.369 4.72433 43.213 4.707C43.0657 4.68967 42.8967 4.681 42.706 4.681C42.3247 4.681 41.9607 4.74167 41.614 4.863C41.276 4.97567 40.977 5.162 40.717 5.422C40.4657 5.682 40.262 6.02 40.106 6.436C39.9587 6.84333 39.885 7.33733 39.885 7.918C39.885 8.50733 39.9587 9.00567 40.106 9.413C40.2533 9.82033 40.4483 10.1497 40.691 10.401C40.9423 10.6523 41.2327 10.8387 41.562 10.96C41.8913 11.0727 42.2423 11.129 42.615 11.129ZM51.7487 8.88C51.7487 9.39133 51.6707 9.85067 51.5147 10.258C51.3587 10.6567 51.1421 10.9947 50.8647 11.272C50.5961 11.5493 50.2797 11.7617 49.9157 11.909C49.5517 12.0477 49.1574 12.117 48.7327 12.117C48.3081 12.117 47.9137 12.052 47.5497 11.922C47.1944 11.7833 46.8824 11.584 46.6137 11.324C46.3537 11.0553 46.1457 10.7303 45.9897 10.349C45.8424 9.959 45.7687 9.51267 45.7687 9.01C45.7687 8.49867 45.8467 8.04367 46.0027 7.645C46.1587 7.24633 46.3711 6.91267 46.6397 6.644C46.9171 6.36667 47.2377 6.15867 47.6017 6.02C47.9657 5.87267 48.3601 5.799 48.7847 5.799C49.2094 5.799 49.5994 5.864 49.9547 5.994C50.3187 6.124 50.6307 6.319 50.8907 6.579C51.1594 6.839 51.3674 7.164 51.5147 7.554C51.6707 7.93533 51.7487 8.37733 51.7487 8.88ZM50.5527 8.945C50.5527 8.53767 50.5007 8.191 50.3967 7.905C50.2927 7.619 50.1541 7.385 49.9807 7.203C49.8161 7.021 49.6254 6.891 49.4087 6.813C49.1921 6.72633 48.9711 6.683 48.7457 6.683C48.5204 6.683 48.2994 6.71767 48.0827 6.787C47.8661 6.85633 47.6754 6.97767 47.5107 7.151C47.3461 7.32433 47.2117 7.55833 47.1077 7.853C47.0124 8.139 46.9647 8.503 46.9647 8.945C46.9647 9.35233 47.0167 9.70333 47.1207 9.998C47.2247 10.284 47.3591 10.518 47.5237 10.7C47.6971 10.882 47.8921 11.0163 48.1087 11.103C48.3254 11.1897 48.5464 11.233 48.7717 11.233C48.9971 11.233 49.2181 11.1983 49.4347 11.129C49.6514 11.051 49.8421 10.9253 50.0067 10.752C50.1714 10.57 50.3014 10.336 50.3967 10.05C50.5007 9.75533 50.5527 9.387 50.5527 8.945ZM54.2848 12H53.1408V5.89H54.0248L54.1938 6.735C54.4798 6.449 54.7875 6.22367 55.1168 6.059C55.4462 5.88567 55.8405 5.799 56.2998 5.799C56.7332 5.799 57.0885 5.89 57.3658 6.072C57.6432 6.24533 57.8512 6.488 57.9898 6.8C58.2932 6.47933 58.6268 6.23233 58.9908 6.059C59.3548 5.88567 59.7578 5.799 60.1998 5.799C60.8238 5.799 61.2918 5.97667 61.6038 6.332C61.9245 6.67867 62.0848 7.164 62.0848 7.788V12H60.9408V7.996C60.9408 7.58867 60.8542 7.27667 60.6808 7.06C60.5075 6.84333 60.2215 6.735 59.8228 6.735C59.2335 6.735 58.6832 6.99933 58.1718 7.528C58.1805 7.57133 58.1848 7.61467 58.1848 7.658C58.1848 7.70133 58.1848 7.74467 58.1848 7.788V12H57.0408V7.996C57.0408 7.58867 56.9542 7.27667 56.7808 7.06C56.6075 6.84333 56.3215 6.735 55.9228 6.735C55.3335 6.735 54.7875 7.01233 54.2848 7.567V12ZM64.0377 12V5.89H65.1817V12H64.0377ZM64.6097 4.317C64.4103 4.317 64.237 4.252 64.0897 4.122C63.951 3.98333 63.8817 3.81433 63.8817 3.615C63.8817 3.41567 63.951 3.24667 64.0897 3.108C64.237 2.96933 64.4103 2.9 64.6097 2.9C64.8003 2.9 64.9693 2.96933 65.1167 3.108C65.264 3.24667 65.3377 3.41567 65.3377 3.615C65.3377 3.81433 65.264 3.98333 65.1167 4.122C64.9693 4.252 64.8003 4.317 64.6097 4.317ZM68.1989 12H67.0549V5.89H67.9519L68.1209 6.735C68.4242 6.43167 68.7406 6.202 69.0699 6.046C69.4079 5.88133 69.7936 5.799 70.2269 5.799C70.8509 5.799 71.3406 5.97667 71.6959 6.332C72.0512 6.67867 72.2289 7.164 72.2289 7.788V12H71.0849V7.957C71.0849 7.58433 70.9852 7.28967 70.7859 7.073C70.5952 6.84767 70.3006 6.735 69.9019 6.735C69.2952 6.735 68.7276 7.008 68.1989 7.554V12ZM73.8448 7.918C73.8448 7.58 73.9054 7.281 74.0268 7.021C74.1481 6.75233 74.3171 6.527 74.5338 6.345C74.7591 6.163 75.0234 6.02867 75.3268 5.942C75.6301 5.84667 75.9594 5.799 76.3148 5.799C76.4448 5.799 76.5704 5.80767 76.6918 5.825C76.8131 5.84233 76.9344 5.864 77.0558 5.89H79.6948V6.735H79.2918L78.2518 6.592C78.4164 6.76533 78.5421 6.96467 78.6288 7.19C78.7241 7.41533 78.7718 7.65367 78.7718 7.905C78.7718 8.243 78.7111 8.54633 78.5898 8.815C78.4684 9.075 78.2994 9.296 78.0828 9.478C77.8661 9.66 77.6061 9.79867 77.3028 9.894C76.9994 9.98067 76.6701 10.024 76.3148 10.024C76.0461 10.024 75.8121 10.0067 75.6128 9.972C75.4134 10.0413 75.2748 10.1323 75.1968 10.245C75.1188 10.349 75.0798 10.4617 75.0798 10.583C75.0798 10.7823 75.1448 10.9167 75.2748 10.986C75.4134 11.0553 75.5954 11.09 75.8208 11.09H77.4328C78.1088 11.09 78.6244 11.246 78.9798 11.558C79.3438 11.8613 79.5258 12.2773 79.5258 12.806C79.5258 13.144 79.4521 13.4473 79.3048 13.716C79.1574 13.9847 78.9451 14.2143 78.6678 14.405C78.3991 14.5957 78.0698 14.7387 77.6798 14.834C77.2898 14.938 76.8521 14.99 76.3668 14.99C75.4828 14.99 74.7764 14.8297 74.2478 14.509C73.7278 14.197 73.4678 13.7333 73.4678 13.118C73.4678 12.7973 73.5674 12.5287 73.7668 12.312C73.9748 12.0953 74.2434 11.9307 74.5728 11.818C74.3994 11.6967 74.2694 11.571 74.1828 11.441C74.0961 11.3023 74.0528 11.1203 74.0528 10.895C74.0528 10.6263 74.1308 10.3967 74.2868 10.206C74.4514 10.0153 74.6724 9.86367 74.9498 9.751C74.6031 9.595 74.3301 9.36967 74.1308 9.075C73.9401 8.77167 73.8448 8.386 73.8448 7.918ZM75.2358 12C74.7938 12.1993 74.5728 12.5113 74.5728 12.936C74.5728 13.6987 75.1881 14.08 76.4188 14.08C76.7828 14.08 77.0904 14.0453 77.3418 13.976C77.5931 13.9067 77.7968 13.8157 77.9528 13.703C78.1088 13.5903 78.2214 13.4647 78.2908 13.326C78.3688 13.1873 78.4078 13.0443 78.4078 12.897C78.4078 12.533 78.2821 12.2903 78.0308 12.169C77.7881 12.0563 77.4804 12 77.1078 12H75.2358ZM77.6148 7.944C77.6148 7.48467 77.4934 7.14667 77.2508 6.93C77.0168 6.71333 76.7048 6.605 76.3148 6.605C75.9248 6.605 75.6084 6.71333 75.3658 6.93C75.1318 7.14667 75.0148 7.46733 75.0148 7.892C75.0148 8.34267 75.1318 8.67633 75.3658 8.893C75.6084 9.101 75.9248 9.205 76.3148 9.205C76.7048 9.205 77.0168 9.101 77.2508 8.893C77.4934 8.685 77.6148 8.36867 77.6148 7.944ZM87.2828 7.034C86.9968 6.89533 86.7368 6.8 86.5028 6.748C86.2688 6.696 86.0348 6.67 85.8008 6.67C85.3848 6.67 85.0771 6.748 84.8778 6.904C84.6785 7.05133 84.5788 7.25067 84.5788 7.502C84.5788 7.684 84.6481 7.84433 84.7868 7.983C84.9255 8.113 85.2158 8.243 85.6578 8.373L86.0478 8.49C86.6285 8.66333 87.0661 8.88867 87.3608 9.166C87.6641 9.43467 87.8158 9.803 87.8158 10.271C87.8158 10.8257 87.6078 11.272 87.1918 11.61C86.7845 11.948 86.2125 12.117 85.4758 12.117C85.0858 12.117 84.7088 12.0823 84.3448 12.013C83.9895 11.9437 83.6818 11.8483 83.4218 11.727L83.6948 10.83C83.9461 10.9513 84.2191 11.051 84.5138 11.129C84.8085 11.1983 85.1075 11.233 85.4108 11.233C85.8008 11.233 86.1085 11.1637 86.3338 11.025C86.5678 10.8863 86.6848 10.6567 86.6848 10.336C86.6848 10.0587 86.5851 9.86367 86.3858 9.751C86.1865 9.62967 85.9005 9.51267 85.5278 9.4L85.1248 9.27C84.5615 9.088 84.1411 8.86267 83.8638 8.594C83.5951 8.31667 83.4608 7.96133 83.4608 7.528C83.4608 7.268 83.5171 7.02967 83.6298 6.813C83.7425 6.59633 83.8941 6.41433 84.0848 6.267C84.2841 6.11967 84.5181 6.007 84.7868 5.929C85.0555 5.84233 85.3501 5.799 85.6708 5.799C85.9741 5.799 86.2861 5.82933 86.6068 5.89C86.9361 5.942 87.2481 6.033 87.5428 6.163L87.2828 7.034ZM94.7477 8.88C94.7477 9.39133 94.6697 9.85067 94.5137 10.258C94.3577 10.6567 94.1411 10.9947 93.8637 11.272C93.5951 11.5493 93.2787 11.7617 92.9147 11.909C92.5507 12.0477 92.1564 12.117 91.7317 12.117C91.3071 12.117 90.9127 12.052 90.5487 11.922C90.1934 11.7833 89.8814 11.584 89.6127 11.324C89.3527 11.0553 89.1447 10.7303 88.9887 10.349C88.8414 9.959 88.7677 9.51267 88.7677 9.01C88.7677 8.49867 88.8457 8.04367 89.0017 7.645C89.1577 7.24633 89.3701 6.91267 89.6387 6.644C89.9161 6.36667 90.2367 6.15867 90.6007 6.02C90.9647 5.87267 91.3591 5.799 91.7837 5.799C92.2084 5.799 92.5984 5.864 92.9537 5.994C93.3177 6.124 93.6297 6.319 93.8897 6.579C94.1584 6.839 94.3664 7.164 94.5137 7.554C94.6697 7.93533 94.7477 8.37733 94.7477 8.88ZM93.5517 8.945C93.5517 8.53767 93.4997 8.191 93.3957 7.905C93.2917 7.619 93.1531 7.385 92.9797 7.203C92.8151 7.021 92.6244 6.891 92.4077 6.813C92.1911 6.72633 91.9701 6.683 91.7447 6.683C91.5194 6.683 91.2984 6.71767 91.0817 6.787C90.8651 6.85633 90.6744 6.97767 90.5097 7.151C90.3451 7.32433 90.2107 7.55833 90.1067 7.853C90.0114 8.139 89.9637 8.503 89.9637 8.945C89.9637 9.35233 90.0157 9.70333 90.1197 9.998C90.2237 10.284 90.3581 10.518 90.5227 10.7C90.6961 10.882 90.8911 11.0163 91.1077 11.103C91.3244 11.1897 91.5454 11.233 91.7707 11.233C91.9961 11.233 92.2171 11.1983 92.4337 11.129C92.6504 11.051 92.8411 10.9253 93.0057 10.752C93.1704 10.57 93.3004 10.336 93.3957 10.05C93.4997 9.75533 93.5517 9.387 93.5517 8.945ZM101.743 8.88C101.743 9.39133 101.665 9.85067 101.509 10.258C101.353 10.6567 101.136 10.9947 100.859 11.272C100.59 11.5493 100.274 11.7617 99.9099 11.909C99.5459 12.0477 99.1515 12.117 98.7269 12.117C98.3022 12.117 97.9079 12.052 97.5439 11.922C97.1885 11.7833 96.8765 11.584 96.6079 11.324C96.3479 11.0553 96.1399 10.7303 95.9839 10.349C95.8365 9.959 95.7629 9.51267 95.7629 9.01C95.7629 8.49867 95.8409 8.04367 95.9969 7.645C96.1529 7.24633 96.3652 6.91267 96.6339 6.644C96.9112 6.36667 97.2319 6.15867 97.5959 6.02C97.9599 5.87267 98.3542 5.799 98.7789 5.799C99.2035 5.799 99.5935 5.864 99.9489 5.994C100.313 6.124 100.625 6.319 100.885 6.579C101.154 6.839 101.362 7.164 101.509 7.554C101.665 7.93533 101.743 8.37733 101.743 8.88ZM100.547 8.945C100.547 8.53767 100.495 8.191 100.391 7.905C100.287 7.619 100.148 7.385 99.9749 7.203C99.8102 7.021 99.6195 6.891 99.4029 6.813C99.1862 6.72633 98.9652 6.683 98.7399 6.683C98.5145 6.683 98.2935 6.71767 98.0769 6.787C97.8602 6.85633 97.6695 6.97767 97.5049 7.151C97.3402 7.32433 97.2059 7.55833 97.1019 7.853C97.0065 8.139 96.9589 8.503 96.9589 8.945C96.9589 9.35233 97.0109 9.70333 97.1149 9.998C97.2189 10.284 97.3532 10.518 97.5179 10.7C97.6912 10.882 97.8862 11.0163 98.1029 11.103C98.3195 11.1897 98.5405 11.233 98.7659 11.233C98.9912 11.233 99.2122 11.1983 99.4289 11.129C99.6455 11.051 99.8362 10.9253 100.001 10.752C100.166 10.57 100.296 10.336 100.391 10.05C100.495 9.75533 100.547 9.387 100.547 8.945ZM104.279 12H103.135V5.89H104.032L104.201 6.735C104.504 6.43167 104.821 6.202 105.15 6.046C105.488 5.88133 105.874 5.799 106.307 5.799C106.931 5.799 107.421 5.97667 107.776 6.332C108.131 6.67867 108.309 7.164 108.309 7.788V12H107.165V7.957C107.165 7.58433 107.065 7.28967 106.866 7.073C106.675 6.84767 106.381 6.735 105.982 6.735C105.375 6.735 104.808 7.008 104.279 7.554V12ZM118.564 8.88C118.564 9.39133 118.486 9.85067 118.33 10.258C118.174 10.6567 117.957 10.9947 117.68 11.272C117.411 11.5493 117.095 11.7617 116.731 11.909C116.367 12.0477 115.973 12.117 115.548 12.117C115.123 12.117 114.729 12.052 114.365 11.922C114.01 11.7833 113.698 11.584 113.429 11.324C113.169 11.0553 112.961 10.7303 112.805 10.349C112.658 9.959 112.584 9.51267 112.584 9.01C112.584 8.49867 112.662 8.04367 112.818 7.645C112.974 7.24633 113.186 6.91267 113.455 6.644C113.732 6.36667 114.053 6.15867 114.417 6.02C114.781 5.87267 115.175 5.799 115.6 5.799C116.025 5.799 116.415 5.864 116.77 5.994C117.134 6.124 117.446 6.319 117.706 6.579C117.975 6.839 118.183 7.164 118.33 7.554C118.486 7.93533 118.564 8.37733 118.564 8.88ZM117.368 8.945C117.368 8.53767 117.316 8.191 117.212 7.905C117.108 7.619 116.969 7.385 116.796 7.203C116.631 7.021 116.441 6.891 116.224 6.813C116.007 6.72633 115.786 6.683 115.561 6.683C115.336 6.683 115.115 6.71767 114.898 6.787C114.681 6.85633 114.491 6.97767 114.326 7.151C114.161 7.32433 114.027 7.55833 113.923 7.853C113.828 8.139 113.78 8.503 113.78 8.945C113.78 9.35233 113.832 9.70333 113.936 9.998C114.04 10.284 114.174 10.518 114.339 10.7C114.512 10.882 114.707 11.0163 114.924 11.103C115.141 11.1897 115.362 11.233 115.587 11.233C115.812 11.233 116.033 11.1983 116.25 11.129C116.467 11.051 116.657 10.9253 116.822 10.752C116.987 10.57 117.117 10.336 117.212 10.05C117.316 9.75533 117.368 9.387 117.368 8.945ZM121.1 12H119.956V5.89H120.853L121.022 6.735C121.326 6.43167 121.642 6.202 121.971 6.046C122.309 5.88133 122.695 5.799 123.128 5.799C123.752 5.799 124.242 5.97667 124.597 6.332C124.953 6.67867 125.13 7.164 125.13 7.788V12H123.986V7.957C123.986 7.58433 123.887 7.28967 123.687 7.073C123.497 6.84767 123.202 6.735 122.803 6.735C122.197 6.735 121.629 7.008 121.1 7.554V12Z" fill="white"/>
<path d="M43.936 21.744C44.5653 21.744 45.1253 21.7973 45.616 21.904C46.1067 22.0107 46.5493 22.1547 46.944 22.336L46.48 23.824C46.1067 23.6427 45.7227 23.5093 45.328 23.424C44.9333 23.3387 44.544 23.296 44.16 23.296C43.7227 23.296 43.3067 23.3653 42.912 23.504C42.528 23.6427 42.192 23.8613 41.904 24.16C41.616 24.4587 41.3867 24.8427 41.216 25.312C41.0453 25.7707 40.96 26.3253 40.96 26.976C40.96 28.1387 41.216 29.0347 41.728 29.664C42.2507 30.2827 42.992 30.592 43.952 30.592C44.5067 30.592 44.9227 30.5387 45.2 30.432V28.08H43.536V26.448H47.296V31.552C46.88 31.7333 46.3947 31.8827 45.84 32C45.2853 32.1173 44.6507 32.176 43.936 32.176C43.1893 32.176 42.4907 32.064 41.84 31.84C41.2 31.616 40.64 31.2853 40.16 30.848C39.6907 30.4 39.3173 29.856 39.04 29.216C38.7733 28.5653 38.64 27.8187 38.64 26.976C38.64 26.1333 38.7733 25.3867 39.04 24.736C39.3173 24.0747 39.6907 23.5253 40.16 23.088C40.6293 22.6507 41.184 22.32 41.824 22.096C42.4747 21.8613 43.1787 21.744 43.936 21.744ZM56.4778 28.128C56.4778 28.7573 56.3764 29.3227 56.1737 29.824C55.9711 30.3253 55.6884 30.752 55.3258 31.104C54.9738 31.4453 54.5578 31.712 54.0778 31.904C53.5978 32.0853 53.0804 32.176 52.5258 32.176C51.9711 32.176 51.4538 32.0907 50.9738 31.92C50.5044 31.7493 50.0938 31.4987 49.7418 31.168C49.4004 30.8373 49.1284 30.432 48.9258 29.952C48.7338 29.4613 48.6378 28.9067 48.6378 28.288C48.6378 27.6373 48.7391 27.0613 48.9418 26.56C49.1444 26.048 49.4218 25.6213 49.7738 25.28C50.1364 24.928 50.5578 24.6613 51.0378 24.48C51.5178 24.2987 52.0351 24.208 52.5898 24.208C53.1444 24.208 53.6564 24.2933 54.1258 24.464C54.6058 24.6347 55.0164 24.8853 55.3578 25.216C55.7098 25.536 55.9818 25.9413 56.1737 26.432C56.3764 26.9227 56.4778 27.488 56.4778 28.128ZM54.2858 28.208C54.2858 27.7707 54.2378 27.3973 54.1418 27.088C54.0458 26.7787 53.9178 26.528 53.7578 26.336C53.5978 26.144 53.4111 26.0053 53.1978 25.92C52.9844 25.824 52.7658 25.776 52.5418 25.776C52.3178 25.776 52.1044 25.8187 51.9018 25.904C51.6991 25.9787 51.5178 26.112 51.3578 26.304C51.1978 26.4853 51.0698 26.7307 50.9738 27.04C50.8778 27.3493 50.8298 27.7387 50.8298 28.208C50.8298 28.624 50.8778 28.9867 50.9738 29.296C51.0698 29.5947 51.1978 29.84 51.3578 30.032C51.5284 30.224 51.7151 30.368 51.9178 30.464C52.1311 30.56 52.3498 30.608 52.5738 30.608C52.7978 30.608 53.0111 30.5707 53.2138 30.496C53.4164 30.4107 53.5978 30.272 53.7578 30.08C53.9178 29.888 54.0458 29.6427 54.1418 29.344C54.2378 29.0347 54.2858 28.656 54.2858 28.208ZM65.4153 28.128C65.4153 28.7573 65.3139 29.3227 65.1112 29.824C64.9086 30.3253 64.6259 30.752 64.2633 31.104C63.9113 31.4453 63.4953 31.712 63.0153 31.904C62.5353 32.0853 62.0179 32.176 61.4633 32.176C60.9086 32.176 60.3913 32.0907 59.9113 31.92C59.4419 31.7493 59.0313 31.4987 58.6793 31.168C58.3379 30.8373 58.0659 30.432 57.8633 29.952C57.6713 29.4613 57.5753 28.9067 57.5753 28.288C57.5753 27.6373 57.6766 27.0613 57.8793 26.56C58.0819 26.048 58.3593 25.6213 58.7113 25.28C59.0739 24.928 59.4953 24.6613 59.9753 24.48C60.4553 24.2987 60.9726 24.208 61.5273 24.208C62.0819 24.208 62.5939 24.2933 63.0633 24.464C63.5433 24.6347 63.9539 24.8853 64.2953 25.216C64.6473 25.536 64.9193 25.9413 65.1112 26.432C65.3139 26.9227 65.4153 27.488 65.4153 28.128ZM63.2233 28.208C63.2233 27.7707 63.1753 27.3973 63.0793 27.088C62.9833 26.7787 62.8553 26.528 62.6953 26.336C62.5353 26.144 62.3486 26.0053 62.1353 25.92C61.9219 25.824 61.7033 25.776 61.4793 25.776C61.2553 25.776 61.0419 25.8187 60.8393 25.904C60.6366 25.9787 60.4553 26.112 60.2953 26.304C60.1353 26.4853 60.0073 26.7307 59.9113 27.04C59.8153 27.3493 59.7673 27.7387 59.7673 28.208C59.7673 28.624 59.8153 28.9867 59.9113 29.296C60.0073 29.5947 60.1353 29.84 60.2953 30.032C60.4659 30.224 60.6526 30.368 60.8553 30.464C61.0686 30.56 61.2873 30.608 61.5113 30.608C61.7353 30.608 61.9486 30.5707 62.1513 30.496C62.3539 30.4107 62.5353 30.272 62.6953 30.08C62.8553 29.888 62.9833 29.6427 63.0793 29.344C63.1753 29.0347 63.2233 28.656 63.2233 28.208ZM66.8488 26.96C66.8488 26.544 66.9288 26.1653 67.0888 25.824C67.2594 25.4827 67.4888 25.1947 67.7768 24.96C68.0754 24.7147 68.4221 24.528 68.8168 24.4C69.2221 24.272 69.6648 24.208 70.1448 24.208C70.3261 24.208 70.5234 24.224 70.7368 24.256C70.9501 24.2773 71.1474 24.3147 71.3288 24.368H74.5928V25.712H73.9048L72.9128 25.568C73.0514 25.7387 73.1634 25.952 73.2488 26.208C73.3448 26.464 73.3928 26.72 73.3928 26.976C73.3928 27.7867 73.0994 28.4427 72.5128 28.944C71.9368 29.4347 71.1421 29.68 70.1288 29.68C69.8621 29.68 69.6274 29.6587 69.4248 29.616C69.1581 29.7227 69.0248 29.8987 69.0248 30.144C69.0248 30.3147 69.0834 30.4427 69.2008 30.528C69.3181 30.6133 69.5261 30.656 69.8248 30.656H71.5368C72.3794 30.656 73.0514 30.8427 73.5528 31.216C74.0648 31.5787 74.3208 32.1653 74.3208 32.976C74.3208 33.392 74.2194 33.7707 74.0168 34.112C73.8248 34.464 73.5474 34.7627 73.1848 35.008C72.8221 35.264 72.3848 35.4613 71.8728 35.6C71.3608 35.7387 70.7901 35.808 70.1608 35.808C68.9981 35.808 68.0754 35.6 67.3928 35.184C66.7208 34.7787 66.3848 34.192 66.3848 33.424C66.3848 33.072 66.5021 32.7627 66.7368 32.496C66.9714 32.24 67.2968 32.0373 67.7128 31.888C67.5634 31.7813 67.4141 31.632 67.2648 31.44C67.1154 31.2373 67.0408 30.9867 67.0408 30.688C67.0408 30.336 67.1474 30.032 67.3608 29.776C67.5741 29.52 67.8461 29.3173 68.1768 29.168C68.0168 29.0827 67.8568 28.976 67.6968 28.848C67.5474 28.7093 67.4088 28.5493 67.2808 28.368C67.1528 28.1867 67.0461 27.9787 66.9608 27.744C66.8861 27.5093 66.8488 27.248 66.8488 26.96ZM68.8968 32.256C68.7368 32.3413 68.6034 32.4533 68.4968 32.592C68.3901 32.7307 68.3368 32.9067 68.3368 33.12C68.3368 33.4293 68.4754 33.6853 68.7528 33.888C69.0408 34.1013 69.5314 34.208 70.2248 34.208C70.9181 34.208 71.4248 34.0907 71.7448 33.856C72.0648 33.6213 72.2248 33.3547 72.2248 33.056C72.2248 32.7573 72.1234 32.5493 71.9208 32.432C71.7181 32.3147 71.4034 32.256 70.9768 32.256H68.8968ZM71.3128 26.944C71.3128 26.528 71.2008 26.2133 70.9768 26C70.7528 25.7867 70.4701 25.68 70.1288 25.68C69.7768 25.68 69.4888 25.7867 69.2648 26C69.0514 26.2133 68.9448 26.5227 68.9448 26.928C68.9448 27.3547 69.0568 27.6747 69.2808 27.888C69.5048 28.1013 69.7874 28.208 70.1288 28.208C70.4808 28.208 70.7634 28.1013 70.9768 27.888C71.2008 27.6747 71.3128 27.36 71.3128 26.944ZM76.0709 32V20.576H78.1669V32H76.0709ZM86.9475 28.736H81.8755V28.8C81.8755 29.408 82.0888 29.8613 82.5155 30.16C82.9422 30.4587 83.4915 30.608 84.1635 30.608C84.5902 30.608 84.9635 30.5653 85.2835 30.48C85.6142 30.3947 85.9128 30.2933 86.1795 30.176L86.5635 31.664C86.2755 31.8027 85.9128 31.92 85.4755 32.016C85.0382 32.1227 84.5208 32.176 83.9235 32.176C83.3475 32.176 82.8035 32.1013 82.2915 31.952C81.7902 31.792 81.3475 31.552 80.9635 31.232C80.5902 30.912 80.2915 30.5067 80.0675 30.016C79.8435 29.5253 79.7315 28.9387 79.7315 28.256C79.7315 27.648 79.8222 27.0987 80.0035 26.608C80.1848 26.1067 80.4408 25.68 80.7715 25.328C81.1128 24.976 81.5182 24.704 81.9875 24.512C82.4568 24.3093 82.9795 24.208 83.5555 24.208C84.5902 24.208 85.4115 24.5227 86.0195 25.152C86.6382 25.7813 86.9475 26.6613 86.9475 27.792V28.736ZM84.7715 27.28C84.7715 27.0773 84.7448 26.88 84.6915 26.688C84.6488 26.496 84.5742 26.3307 84.4675 26.192C84.3608 26.0427 84.2275 25.9253 84.0675 25.84C83.9075 25.7547 83.7102 25.712 83.4755 25.712C83.0488 25.712 82.6968 25.856 82.4195 26.144C82.1422 26.432 81.9768 26.8213 81.9235 27.312L84.7715 27.28ZM95.7319 32.176C95.4545 32.176 95.1772 32.1387 94.8999 32.064C94.6332 32 94.4092 31.9147 94.2279 31.808V35.68H92.1159V24.336H93.7319L93.9559 25.184C94.2652 24.8853 94.6172 24.6507 95.0119 24.48C95.4065 24.2987 95.8492 24.208 96.3399 24.208C97.3425 24.208 98.1319 24.5493 98.7079 25.232C99.2945 25.904 99.5879 26.8373 99.5879 28.032C99.5879 28.704 99.4865 29.3013 99.2839 29.824C99.0812 30.336 98.8039 30.768 98.4519 31.12C98.0999 31.472 97.6892 31.7387 97.2199 31.92C96.7505 32.0907 96.2545 32.176 95.7319 32.176ZM95.7639 25.808C95.4119 25.808 95.1025 25.8933 94.8359 26.064C94.5692 26.224 94.3665 26.3893 94.2279 26.56V30.208C94.5585 30.4747 94.9692 30.608 95.4599 30.608C95.6945 30.608 95.9239 30.5653 96.1479 30.48C96.3825 30.384 96.5905 30.24 96.7719 30.048C96.9639 29.8453 97.1132 29.584 97.2199 29.264C97.3372 28.944 97.3959 28.5547 97.3959 28.096C97.3959 27.7653 97.3585 27.4613 97.2839 27.184C97.2199 26.9067 97.1185 26.6667 96.9799 26.464C96.8412 26.2613 96.6705 26.1013 96.4679 25.984C96.2652 25.8667 96.0305 25.808 95.7639 25.808ZM101.149 32V20.576H103.245V32H101.149ZM105.354 25.04C105.812 24.7733 106.298 24.5707 106.81 24.432C107.322 24.2827 107.866 24.208 108.442 24.208C108.9 24.208 109.316 24.2613 109.69 24.368C110.074 24.4747 110.399 24.6453 110.666 24.88C110.943 25.104 111.151 25.3973 111.29 25.76C111.439 26.112 111.514 26.5387 111.514 27.04V32H109.866L109.674 31.216H109.61C109.364 31.5147 109.05 31.7493 108.666 31.92C108.292 32.0907 107.855 32.176 107.354 32.176C106.938 32.176 106.57 32.1173 106.25 32C105.93 31.872 105.658 31.7067 105.434 31.504C105.21 31.2907 105.039 31.04 104.922 30.752C104.815 30.464 104.762 30.1547 104.762 29.824C104.762 29.3867 104.852 29.0133 105.034 28.704C105.226 28.384 105.487 28.1227 105.818 27.92C106.148 27.7173 106.532 27.568 106.97 27.472C107.418 27.376 107.898 27.328 108.41 27.328H109.37V26.864C109.37 26.512 109.258 26.256 109.034 26.096C108.82 25.9253 108.516 25.84 108.122 25.84C107.812 25.84 107.492 25.888 107.162 25.984C106.842 26.08 106.484 26.2347 106.09 26.448L105.354 25.04ZM109.386 28.656L108.698 28.672C108.047 28.6933 107.594 28.8053 107.338 29.008C107.082 29.2 106.954 29.4347 106.954 29.712C106.954 30.0747 107.06 30.3253 107.274 30.464C107.498 30.592 107.748 30.656 108.026 30.656C108.303 30.656 108.564 30.576 108.81 30.416C109.066 30.256 109.258 30.0693 109.386 29.856V28.656ZM112.3 24.368H114.62L115.98 28L116.492 29.856H116.556L117.052 27.984L118.236 24.368H120.411L117.612 32.272C117.452 32.7093 117.27 33.1253 117.068 33.52C116.876 33.9253 116.636 34.2987 116.348 34.64C116.07 34.9813 115.74 35.2853 115.356 35.552C114.972 35.8187 114.518 36.0373 113.996 36.208L113.116 34.56C113.713 34.3467 114.214 34.0373 114.62 33.632C115.025 33.2267 115.302 32.7413 115.452 32.176L115.516 31.968L112.3 24.368Z" fill="white"/>
<g clip-path="url(#clip0_81_1834)">
<path d="M3.91108 33.9996C3.6277 34.0046 3.34432 33.9563 3.0776 33.8563L16.5033 20.4256L20.9474 24.8747L5.51969 33.5429C5.03106 33.8295 4.4774 33.9867 3.91108 33.9996V33.9996ZM1.97074 32.8911C1.69783 32.3968 1.562 31.8386 1.57734 31.2742V6.76157C1.57509 6.38948 1.63134 6.01934 1.74404 5.66471L15.4681 19.3921L1.96574 32.8945L1.97074 32.8911V32.8911ZM22.2726 24.1263L17.5368 19.3938L22.7594 14.1729L27.3985 16.7783C28.2887 17.1784 28.8854 18.0369 28.9454 19.0104C28.9159 19.4886 28.7559 19.9496 28.4829 20.3434C28.2099 20.7372 27.8343 21.0487 27.3968 21.2441L22.2726 24.1263ZM16.5033 18.3536L2.60085 4.45284C2.98259 4.16945 3.44433 4.01943 3.91942 4.01776C4.47951 4.03776 5.02627 4.19613 5.51136 4.47951L21.4325 13.4277L16.5049 18.3536H16.5033V18.3536Z" fill="white"/>
</g>
<defs>
<clipPath id="clip0_81_1834">
<rect width="30" height="30" fill="white" transform="translate(0 4)"/>
</clipPath>
</defs>
</svg>
