<svg width="50" height="59" viewBox="0 0 50 59" fill="none" xmlns="http://www.w3.org/2000/svg">
<path d="M22.3426 16.4684V6.45312C22.3426 4.74165 21.6627 3.10027 20.4525 1.89008C19.2423 0.679881 17.6009 0 15.8894 0C14.178 0 12.5366 0.679881 11.3264 1.89008C10.1162 3.10027 9.43632 4.74165 9.43632 6.45312V26.1444L5.01132 27.0294C3.65498 27.3013 2.44976 28.0716 1.63336 29.1883C0.816968 30.3051 0.448658 31.6872 0.601072 33.0621L1.87326 44.5155C2.03687 45.9796 2.54898 47.3832 3.3667 48.6086L8.65088 56.5368C9.15595 57.2944 9.84025 57.9157 10.643 58.3454C11.4458 58.7751 12.3423 58.9999 13.2529 59H36.7976C37.7725 58.9997 38.7301 58.7417 39.5732 58.2521C40.4164 57.7626 41.1151 57.0588 41.5987 56.2122L46.7428 47.2111C47.6421 45.6376 48.1999 43.8925 48.38 42.0891L49.3793 32.0776C49.4818 31.0523 49.3684 30.017 49.0463 29.0382C48.7242 28.0595 48.2006 27.1592 47.5092 26.3952C46.8178 25.6312 45.9741 25.0206 45.0323 24.6027C44.0905 24.1847 43.0716 23.9688 42.0412 23.9688H39.8988C39.6685 23.6566 39.4287 23.3516 39.1797 23.0542C38.4754 22.2098 37.2991 20.9597 35.9347 20.414C34.5924 19.8756 32.8151 19.9272 31.6646 20.0157L31.1778 20.06C30.7852 19.0551 30.0551 18.2181 29.1128 17.6926C28.2645 17.2034 27.347 16.8453 26.3914 16.6306C25.2483 16.402 23.6664 16.4167 22.5196 16.461L22.3426 16.4684Z" fill="#8A6859"/>
</svg>
