<svg width="18" height="19" viewBox="0 0 18 19" fill="none" xmlns="http://www.w3.org/2000/svg">
<path d="M7.9374 0.568008C8.5644 0.0880078 9.4359 0.0880078 10.0629 0.568008L17.5059 6.25751C18.4539 6.98201 17.9454 8.49401 16.7544 8.50001H1.2444C0.0548981 8.49401 -0.455102 6.98201 0.494398 6.25751L7.9374 0.568008ZM8.9994 5.87501C9.29777 5.87501 9.58391 5.75648 9.79489 5.5455C10.0059 5.33452 10.1244 5.04838 10.1244 4.75001C10.1244 4.45164 10.0059 4.16549 9.79489 3.95451C9.58391 3.74353 9.29777 3.62501 8.9994 3.62501C8.70103 3.62501 8.41488 3.74353 8.2039 3.95451C7.99292 4.16549 7.8744 4.45164 7.8744 4.75001C7.8744 5.04838 7.99292 5.33452 8.2039 5.5455C8.41488 5.75648 8.70103 5.87501 8.9994 5.87501Z" fill="#4BA67B"/>
<path d="M2.25 10V14.5H4.5V10H2.25Z" fill="#4BA67B"/>
<path d="M6 10V14.5H8.25V10H6Z" fill="#4BA67B"/>
<path d="M9.75 10V14.5H12V10H9.75Z" fill="#4BA67B"/>
<path d="M13.5 10V14.5H15.75V10H13.5Z" fill="#4BA67B"/>
<path d="M0 17.875C0 16.84 0.84 16 1.875 16H16.125C17.16 16 18 16.84 18 17.875V18.25C18 18.4489 17.921 18.6397 17.7803 18.7803C17.6397 18.921 17.4489 19 17.25 19H0.75C0.551088 19 0.360322 18.921 0.21967 18.7803C0.0790178 18.6397 0 18.4489 0 18.25V17.875Z" fill="#4BA67B"/>
</svg>
