<svg width="721" height="781" viewBox="0 0 721 781" fill="none" xmlns="http://www.w3.org/2000/svg">
<g opacity="0.15">
<rect x="706" y="548" width="218" height="218" rx="12" transform="rotate(90 706 548)" fill="#F2C438"/>
<rect x="716.5" y="537.5" width="239" height="239" rx="18.5" transform="rotate(90 716.5 537.5)" stroke="#FBCF4A" stroke-width="9"/>
</g>
<g opacity="0.15">
<rect x="557.688" y="491.312" width="116.375" height="116.375" rx="6.16734" transform="rotate(90 557.688 491.312)" fill="#FBCF4A" stroke="#FBCF4A" stroke-width="0.53629"/>
<rect x="563.587" y="485.413" width="128.173" height="128.173" rx="9.92137" transform="rotate(90 563.587 485.413)" stroke="#FBCF4A" stroke-width="4.82661"/>
</g>
<g opacity="0.15">
<rect x="341.984" y="22.0161" width="319.968" height="319.968" rx="10.3019" transform="rotate(90 341.984 22.0161)" fill="#F2C438"/>
<rect x="360.137" y="3.86321" width="356.274" height="356.274" rx="15.8821" transform="rotate(90 360.137 3.86321)" stroke="#FBCF4A" stroke-width="7.72642"/>
</g>
<g opacity="0.15">
<rect x="276.04" y="311.166" width="139.148" height="139.148" rx="5.2946" transform="rotate(90 276.04 311.166)" fill="#FBCF4A" stroke="#FBCF4A" stroke-width="0.4604"/>
<rect x="283.805" y="303.402" width="154.677" height="154.677" rx="8.5174" transform="rotate(90 283.805 303.402)" stroke="#FBCF4A" stroke-width="4.1436"/>
</g>
<rect x="93" y="275" width="418" height="462" rx="11.7402" fill="#55BC8C"/>
<rect x="118.5" y="303.5" width="408" height="447" rx="8.24016" stroke="#F2C438" stroke-width="7"/>
<rect x="137" y="212" width="435" height="496" rx="11.7402" fill="#DAFFED"/>
<g filter="url(#filter0_d_101_331)">
<rect x="26" y="242" width="221" height="67" rx="8" fill="white"/>
</g>
<path d="M94.76 277.064H97.32L96.856 275.72C96.7067 275.304 96.568 274.888 96.44 274.472C96.312 274.045 96.1893 273.619 96.072 273.192H96.04C95.9227 273.597 95.7947 274.013 95.656 274.44C95.5173 274.856 95.3733 275.283 95.224 275.72L94.76 277.064ZM94.952 270.92H97.224L100.952 281H98.632L97.848 278.68H94.264L93.48 281H91.192L94.952 270.92ZM109.653 277.208C109.653 277.816 109.562 278.365 109.381 278.856C109.2 279.347 108.949 279.768 108.629 280.12C108.309 280.461 107.93 280.723 107.493 280.904C107.056 281.085 106.581 281.176 106.069 281.176C105.568 281.176 105.141 281.101 104.789 280.952C104.437 280.792 104.128 280.573 103.861 280.296H103.797L103.653 281H102.117V269.576H104.229V273.992C104.496 273.747 104.805 273.555 105.157 273.416C105.52 273.277 105.904 273.208 106.309 273.208C107.354 273.208 108.17 273.56 108.757 274.264C109.354 274.968 109.653 275.949 109.653 277.208ZM107.461 277.256C107.461 276.467 107.306 275.869 106.997 275.464C106.688 275.048 106.25 274.84 105.685 274.84C105.386 274.84 105.109 274.915 104.853 275.064C104.597 275.203 104.394 275.363 104.245 275.544V279.048C104.384 279.208 104.56 279.341 104.773 279.448C104.997 279.555 105.232 279.608 105.477 279.608C105.733 279.608 105.978 279.56 106.213 279.464C106.458 279.368 106.672 279.224 106.853 279.032C107.045 278.84 107.194 278.6 107.301 278.312C107.408 278.013 107.461 277.661 107.461 277.256ZM118.603 277.128C118.603 277.757 118.501 278.323 118.299 278.824C118.096 279.325 117.813 279.752 117.451 280.104C117.099 280.445 116.683 280.712 116.203 280.904C115.723 281.085 115.205 281.176 114.651 281.176C114.096 281.176 113.579 281.091 113.099 280.92C112.629 280.749 112.219 280.499 111.867 280.168C111.525 279.837 111.253 279.432 111.051 278.952C110.859 278.461 110.763 277.907 110.763 277.288C110.763 276.637 110.864 276.061 111.067 275.56C111.269 275.048 111.547 274.621 111.899 274.28C112.261 273.928 112.683 273.661 113.163 273.48C113.643 273.299 114.16 273.208 114.715 273.208C115.269 273.208 115.781 273.293 116.251 273.464C116.731 273.635 117.141 273.885 117.483 274.216C117.835 274.536 118.107 274.941 118.299 275.432C118.501 275.923 118.603 276.488 118.603 277.128ZM116.411 277.208C116.411 276.771 116.363 276.397 116.267 276.088C116.171 275.779 116.043 275.528 115.883 275.336C115.723 275.144 115.536 275.005 115.323 274.92C115.109 274.824 114.891 274.776 114.667 274.776C114.443 274.776 114.229 274.819 114.027 274.904C113.824 274.979 113.643 275.112 113.483 275.304C113.323 275.485 113.195 275.731 113.099 276.04C113.003 276.349 112.955 276.739 112.955 277.208C112.955 277.624 113.003 277.987 113.099 278.296C113.195 278.595 113.323 278.84 113.483 279.032C113.653 279.224 113.84 279.368 114.043 279.464C114.256 279.56 114.475 279.608 114.699 279.608C114.923 279.608 115.136 279.571 115.339 279.496C115.541 279.411 115.723 279.272 115.883 279.08C116.043 278.888 116.171 278.643 116.267 278.344C116.363 278.035 116.411 277.656 116.411 277.208ZM125.044 273.368H127.172V281H125.588L125.364 280.136H125.3C125.183 280.253 125.044 280.376 124.884 280.504C124.735 280.621 124.554 280.733 124.34 280.84C124.138 280.936 123.903 281.016 123.636 281.08C123.38 281.144 123.092 281.176 122.772 281.176C121.951 281.176 121.3 280.947 120.82 280.488C120.351 280.029 120.116 279.352 120.116 278.456V273.368H122.244V278.28C122.244 278.739 122.351 279.069 122.564 279.272C122.788 279.475 123.071 279.576 123.412 279.576C123.796 279.576 124.122 279.496 124.388 279.336C124.666 279.176 124.884 278.989 125.044 278.776V273.368ZM133.645 274.904H131.613V278.424C131.613 278.787 131.693 279.037 131.853 279.176C132.024 279.304 132.248 279.368 132.525 279.368C132.738 279.368 132.957 279.347 133.181 279.304C133.405 279.261 133.586 279.203 133.725 279.128L134.045 280.616C133.864 280.701 133.592 280.787 133.229 280.872C132.866 280.957 132.482 281 132.077 281C131.149 281 130.488 280.819 130.093 280.456C129.698 280.083 129.501 279.528 129.501 278.792V274.904H128.317V273.368H129.501V271.016H131.613V273.368H133.645V274.904ZM143.81 273.368H145.938V281H144.354L144.13 280.136H144.066C143.949 280.253 143.81 280.376 143.65 280.504C143.501 280.621 143.319 280.733 143.106 280.84C142.903 280.936 142.669 281.016 142.402 281.08C142.146 281.144 141.858 281.176 141.538 281.176C140.717 281.176 140.066 280.947 139.586 280.488C139.117 280.029 138.882 279.352 138.882 278.456V273.368H141.01V278.28C141.01 278.739 141.117 279.069 141.33 279.272C141.554 279.475 141.837 279.576 142.178 279.576C142.562 279.576 142.887 279.496 143.154 279.336C143.431 279.176 143.65 278.989 143.81 278.776V273.368ZM152.459 275.192C151.829 274.893 151.221 274.744 150.635 274.744C150.293 274.744 150.027 274.803 149.835 274.92C149.653 275.037 149.563 275.197 149.563 275.4C149.563 275.603 149.643 275.768 149.803 275.896C149.973 276.024 150.309 276.163 150.811 276.312L151.291 276.456C151.952 276.648 152.453 276.925 152.795 277.288C153.136 277.651 153.307 278.12 153.307 278.696C153.307 279.453 153.013 280.056 152.427 280.504C151.851 280.952 151.067 281.176 150.075 281.176C149.061 281.176 148.192 280.995 147.467 280.632L147.947 279.064C148.256 279.224 148.581 279.357 148.923 279.464C149.264 279.56 149.611 279.608 149.963 279.608C150.389 279.608 150.699 279.544 150.891 279.416C151.093 279.277 151.195 279.101 151.195 278.888C151.195 278.664 151.099 278.493 150.907 278.376C150.715 278.248 150.352 278.109 149.819 277.96L149.323 277.816C148.683 277.603 148.213 277.32 147.915 276.968C147.616 276.616 147.467 276.147 147.467 275.56C147.467 274.867 147.728 274.301 148.251 273.864C148.773 273.427 149.504 273.208 150.443 273.208C151.371 273.208 152.192 273.373 152.907 273.704L152.459 275.192Z" fill="#2F3733"/>
<path d="M68.0003 292.667H44.667V262.667H61.3337L68.0003 269.333V292.667Z" fill="#42A5F5"/>
<path d="M73.9259 292.667H48V259.333H66.5185L73.9259 266.741V292.667Z" fill="#90CAF9"/>
<path d="M70.083 266.833H63.833V260.583L70.083 266.833Z" fill="#E1F5FE"/>
<path d="M58.4167 279.583C58.4167 275.667 61.4167 275.917 61.4167 273.583C61.4167 273 61.25 271.833 59.75 271.833C58.0833 271.833 58 273.167 58 273.5H55.75C55.75 272.917 56 270 59.75 270C63.5833 270 63.6667 273 63.6667 273.583C63.6667 276.5 60.5 276.917 60.5 279.667H58.4167V279.583ZM58.25 282.5C58.25 282.333 58.25 281.25 59.5 281.25C60.6667 281.25 60.75 282.333 60.75 282.5C60.75 282.833 60.5833 283.667 59.5 283.667C58.4167 283.667 58.25 282.833 58.25 282.5Z" fill="#1976D2"/>
<g filter="url(#filter1_d_101_331)">
<rect x="434" y="608" width="221" height="67" rx="8" fill="white"/>
</g>
<path d="M502.296 636.92V647H500.104V636.92H502.296ZM506.51 647H504.382V639.368H506.046L506.302 640.344C506.654 639.981 507.038 639.704 507.454 639.512C507.881 639.309 508.35 639.208 508.862 639.208C509.705 639.208 510.35 639.437 510.798 639.896C511.246 640.355 511.47 641.021 511.47 641.896V647H509.342V642.12C509.342 641.725 509.246 641.416 509.054 641.192C508.862 640.957 508.579 640.84 508.206 640.84C507.929 640.84 507.635 640.92 507.326 641.08C507.027 641.229 506.755 641.437 506.51 641.704V647ZM516.455 635.56C516.839 635.56 517.218 635.613 517.591 635.72C517.964 635.816 518.29 635.944 518.567 636.104L518.151 637.496C517.97 637.411 517.788 637.341 517.607 637.288C517.426 637.224 517.228 637.192 517.015 637.192C516.642 637.192 516.364 637.304 516.183 637.528C516.002 637.741 515.911 638.109 515.911 638.632V639.368H517.831V640.904H515.911V647H513.799V640.904H512.631V639.368H513.799V638.184C513.799 637.331 514.039 636.68 514.519 636.232C514.999 635.784 515.644 635.56 516.455 635.56ZM526.353 643.128C526.353 643.757 526.251 644.323 526.049 644.824C525.846 645.325 525.563 645.752 525.201 646.104C524.849 646.445 524.433 646.712 523.953 646.904C523.473 647.085 522.955 647.176 522.401 647.176C521.846 647.176 521.329 647.091 520.849 646.92C520.379 646.749 519.969 646.499 519.617 646.168C519.275 645.837 519.003 645.432 518.801 644.952C518.609 644.461 518.513 643.907 518.513 643.288C518.513 642.637 518.614 642.061 518.817 641.56C519.019 641.048 519.297 640.621 519.649 640.28C520.011 639.928 520.433 639.661 520.913 639.48C521.393 639.299 521.91 639.208 522.465 639.208C523.019 639.208 523.531 639.293 524.001 639.464C524.481 639.635 524.891 639.885 525.233 640.216C525.585 640.536 525.857 640.941 526.049 641.432C526.251 641.923 526.353 642.488 526.353 643.128ZM524.161 643.208C524.161 642.771 524.113 642.397 524.017 642.088C523.921 641.779 523.793 641.528 523.633 641.336C523.473 641.144 523.286 641.005 523.073 640.92C522.859 640.824 522.641 640.776 522.417 640.776C522.193 640.776 521.979 640.819 521.777 640.904C521.574 640.979 521.393 641.112 521.233 641.304C521.073 641.485 520.945 641.731 520.849 642.04C520.753 642.349 520.705 642.739 520.705 643.208C520.705 643.624 520.753 643.987 520.849 644.296C520.945 644.595 521.073 644.84 521.233 645.032C521.403 645.224 521.59 645.368 521.793 645.464C522.006 645.56 522.225 645.608 522.449 645.608C522.673 645.608 522.886 645.571 523.089 645.496C523.291 645.411 523.473 645.272 523.633 645.08C523.793 644.888 523.921 644.643 524.017 644.344C524.113 644.035 524.161 643.656 524.161 643.208ZM527.866 647V639.368H529.514L529.754 640.744C529.936 640.339 530.224 639.981 530.618 639.672C531.013 639.363 531.509 639.208 532.106 639.208C532.352 639.208 532.57 639.235 532.762 639.288C532.954 639.341 533.114 639.405 533.242 639.48L532.89 641.16C532.773 641.096 532.624 641.043 532.442 641C532.261 640.947 532.048 640.92 531.802 640.92C531.28 640.92 530.842 641.096 530.49 641.448C530.149 641.789 529.978 642.355 529.978 643.144V647H527.866ZM536.229 647H534.101V639.368H535.765L536.021 640.344C536.362 639.992 536.735 639.715 537.141 639.512C537.546 639.309 538.005 639.208 538.517 639.208C539.605 639.208 540.346 639.603 540.741 640.392C541.082 640.019 541.471 639.731 541.909 639.528C542.346 639.315 542.815 639.208 543.317 639.208C544.127 639.208 544.746 639.427 545.173 639.864C545.61 640.301 545.829 640.936 545.829 641.768V647H543.701V642.008C543.701 641.645 543.61 641.363 543.429 641.16C543.258 640.947 543.002 640.84 542.661 640.84C542.373 640.84 542.079 640.909 541.781 641.048C541.493 641.187 541.242 641.384 541.029 641.64V647H538.901V642.008C538.901 641.645 538.81 641.363 538.629 641.16C538.458 640.947 538.202 640.84 537.861 640.84C537.573 640.84 537.279 640.92 536.981 641.08C536.693 641.229 536.442 641.437 536.229 641.704V647ZM547.885 640.04C548.344 639.773 548.829 639.571 549.341 639.432C549.853 639.283 550.397 639.208 550.973 639.208C551.432 639.208 551.848 639.261 552.221 639.368C552.605 639.475 552.93 639.645 553.197 639.88C553.474 640.104 553.682 640.397 553.821 640.76C553.97 641.112 554.045 641.539 554.045 642.04V647H552.397L552.205 646.216H552.141C551.896 646.515 551.581 646.749 551.197 646.92C550.824 647.091 550.386 647.176 549.885 647.176C549.469 647.176 549.101 647.117 548.781 647C548.461 646.872 548.189 646.707 547.965 646.504C547.741 646.291 547.57 646.04 547.453 645.752C547.346 645.464 547.293 645.155 547.293 644.824C547.293 644.387 547.384 644.013 547.565 643.704C547.757 643.384 548.018 643.123 548.349 642.92C548.68 642.717 549.064 642.568 549.501 642.472C549.949 642.376 550.429 642.328 550.941 642.328H551.901V641.864C551.901 641.512 551.789 641.256 551.565 641.096C551.352 640.925 551.048 640.84 550.653 640.84C550.344 640.84 550.024 640.888 549.693 640.984C549.373 641.08 549.016 641.235 548.621 641.448L547.885 640.04ZM551.917 643.656L551.229 643.672C550.578 643.693 550.125 643.805 549.869 644.008C549.613 644.2 549.485 644.435 549.485 644.712C549.485 645.075 549.592 645.325 549.805 645.464C550.029 645.592 550.28 645.656 550.557 645.656C550.834 645.656 551.096 645.576 551.341 645.416C551.597 645.256 551.789 645.069 551.917 644.856V643.656ZM560.567 640.904H558.535V644.424C558.535 644.787 558.615 645.037 558.775 645.176C558.946 645.304 559.17 645.368 559.447 645.368C559.66 645.368 559.879 645.347 560.103 645.304C560.327 645.261 560.508 645.203 560.647 645.128L560.967 646.616C560.786 646.701 560.514 646.787 560.151 646.872C559.788 646.957 559.404 647 558.999 647C558.071 647 557.41 646.819 557.015 646.456C556.62 646.083 556.423 645.528 556.423 644.792V640.904H555.239V639.368H556.423V637.016H558.535V639.368H560.567V640.904ZM562.292 647V639.368H564.42V647H562.292ZM563.364 637.736C563.002 637.736 562.719 637.635 562.516 637.432C562.314 637.219 562.212 636.957 562.212 636.648C562.212 636.339 562.314 636.083 562.516 635.88C562.719 635.667 563.002 635.56 563.364 635.56C563.716 635.56 563.994 635.667 564.196 635.88C564.41 636.083 564.516 636.339 564.516 636.648C564.516 636.957 564.415 637.219 564.212 637.432C564.01 637.635 563.727 637.736 563.364 637.736ZM573.962 643.128C573.962 643.757 573.861 644.323 573.658 644.824C573.455 645.325 573.173 645.752 572.81 646.104C572.458 646.445 572.042 646.712 571.562 646.904C571.082 647.085 570.565 647.176 570.01 647.176C569.455 647.176 568.938 647.091 568.458 646.92C567.989 646.749 567.578 646.499 567.226 646.168C566.885 645.837 566.613 645.432 566.41 644.952C566.218 644.461 566.122 643.907 566.122 643.288C566.122 642.637 566.223 642.061 566.426 641.56C566.629 641.048 566.906 640.621 567.258 640.28C567.621 639.928 568.042 639.661 568.522 639.48C569.002 639.299 569.519 639.208 570.074 639.208C570.629 639.208 571.141 639.293 571.61 639.464C572.09 639.635 572.501 639.885 572.842 640.216C573.194 640.536 573.466 640.941 573.658 641.432C573.861 641.923 573.962 642.488 573.962 643.128ZM571.77 643.208C571.77 642.771 571.722 642.397 571.626 642.088C571.53 641.779 571.402 641.528 571.242 641.336C571.082 641.144 570.895 641.005 570.682 640.92C570.469 640.824 570.25 640.776 570.026 640.776C569.802 640.776 569.589 640.819 569.386 640.904C569.183 640.979 569.002 641.112 568.842 641.304C568.682 641.485 568.554 641.731 568.458 642.04C568.362 642.349 568.314 642.739 568.314 643.208C568.314 643.624 568.362 643.987 568.458 644.296C568.554 644.595 568.682 644.84 568.842 645.032C569.013 645.224 569.199 645.368 569.402 645.464C569.615 645.56 569.834 645.608 570.058 645.608C570.282 645.608 570.495 645.571 570.698 645.496C570.901 645.411 571.082 645.272 571.242 645.08C571.402 644.888 571.53 644.643 571.626 644.344C571.722 644.035 571.77 643.656 571.77 643.208ZM577.604 647H575.476V639.368H577.14L577.396 640.344C577.748 639.981 578.132 639.704 578.548 639.512C578.974 639.309 579.444 639.208 579.956 639.208C580.798 639.208 581.444 639.437 581.892 639.896C582.34 640.355 582.564 641.021 582.564 641.896V647H580.436V642.12C580.436 641.725 580.34 641.416 580.148 641.192C579.956 640.957 579.673 640.84 579.3 640.84C579.022 640.84 578.729 640.92 578.42 641.08C578.121 641.229 577.849 641.437 577.604 641.704V647Z" fill="#2F3733"/>
<path d="M467.667 627C474.133 627 479.333 632.233 479.333 638.667C479.333 643.333 476.617 647.317 472.667 649.183V657H461V652H459.333C457.483 652 456 650.517 456 648.667V643.667H453.5C452.8 643.667 452.4 642.833 452.8 642.317L456 638.1C456.147 635.105 457.44 632.282 459.612 630.216C461.785 628.149 464.669 626.998 467.667 627ZM463.2 634.317H466.417C466.433 633.817 466.583 633.433 466.883 633.167C467.192 632.911 467.583 632.775 467.983 632.783C468.5 632.783 468.933 632.95 469.233 633.25C469.533 633.567 469.667 634 469.667 634.5C469.667 635.033 469.55 635.483 469.283 635.867C469.05 636.25 468.7 636.583 468.267 636.85C467.417 637.417 466.833 637.917 466.517 638.367C466.183 638.8 466 639.5 466 640.333H469.333C469.333 639.817 469.4 639.4 469.55 639.1C469.7 638.783 469.983 638.5 470.4 638.233C471.15 637.833 471.767 637.35 472.25 636.683C472.733 636.017 472.983 635.333 472.983 634.5C472.983 633.233 472.533 632.217 471.633 631.467C470.75 630.717 469.533 630.333 467.983 630.333C466.533 630.333 465.367 630.667 464.467 631.317C463.6 632 463.167 632.95 463.183 634.267L463.2 634.317ZM466 645.333H469.333V642H466V645.333ZM467.667 623.667C460.017 623.667 453.683 629.367 452.767 636.833L450.167 640.333H450.117L450.083 640.383C449.167 641.65 449.05 643.317 449.767 644.7C450.367 645.85 451.433 646.65 452.667 646.9V648.667C452.667 651.75 454.8 654.367 457.667 655.117V660.333H476V651.167C480.167 648.383 482.667 643.767 482.667 638.667C482.667 630.383 475.933 623.667 467.667 623.667Z" fill="#BD32FF"/>
<path d="M64.3976 461.331C64.3976 461.331 54.0637 454.455 56.323 452.274C58.5823 450.093 69.6825 454.887 72.1972 458.109C74.7316 461.331 73.4546 463.59 71.3721 463.787C69.2895 463.983 64.3976 461.331 64.3976 461.331Z" fill="#F7A9A0" stroke="#263238" stroke-miterlimit="10" stroke-linecap="round" stroke-linejoin="round"/>
<path d="M73.1205 453.414C73.1205 453.414 57.1088 445.084 60.9398 452.765C64.7905 460.447 74.3975 467.5 78.2285 469.425C82.0596 471.351 103.219 470.702 103.219 470.702C103.219 470.702 99.368 463.649 95.5369 461.744C91.7059 459.838 73.1205 453.414 73.1205 453.414Z" fill="#F7A9A0" stroke="#263238" stroke-miterlimit="10" stroke-linecap="round" stroke-linejoin="round"/>
<path d="M88.5037 453.413C88.5037 453.413 67.3643 441.881 66.716 446.36C66.0676 450.84 83.376 465.575 89.1324 468.148C94.8888 470.702 103.219 470.702 103.219 470.702L88.5037 453.413Z" fill="#F7A9A0" stroke="#263238" stroke-miterlimit="10" stroke-linecap="round" stroke-linejoin="round"/>
<path d="M64 403.756H78.8478" stroke="#263238" stroke-miterlimit="10" stroke-linecap="round" stroke-linejoin="round"/>
<path d="M179.103 403.756H193.95" stroke="#263238" stroke-miterlimit="10" stroke-linecap="round" stroke-linejoin="round"/>
<path d="M78.8477 364.777L87.2011 371.272" stroke="#263238" stroke-miterlimit="10" stroke-linecap="round" stroke-linejoin="round"/>
<path d="M177.242 364.777L168.889 371.272" stroke="#263238" stroke-miterlimit="10" stroke-linecap="round" stroke-linejoin="round"/>
<path d="M112.262 349L113.191 362.918" stroke="#263238" stroke-miterlimit="10" stroke-linecap="round" stroke-linejoin="round"/>
<path d="M144.76 350.846L142.9 362.918" stroke="#263238" stroke-miterlimit="10" stroke-linecap="round" stroke-linejoin="round"/>
<path d="M165.82 386.374H85.6729V455.532H165.82V386.374Z" fill="white" stroke="#263238" stroke-miterlimit="10" stroke-linecap="round" stroke-linejoin="round"/>
<path d="M115.432 386.374H100.316V455.532H115.432V386.374Z" fill="#92E3A9" stroke="#263238" stroke-miterlimit="10" stroke-linecap="round" stroke-linejoin="round"/>
<path d="M165.819 386.374H130.687V455.532H165.819V386.374Z" fill="white" stroke="#263238" stroke-miterlimit="10" stroke-linecap="round" stroke-linejoin="round"/>
<path d="M120.095 380.733L108.355 375.588C108.036 375.55 107.756 375.538 107.489 375.538L107.298 375.448H95.4678L104.687 379.765C104.738 380.415 104.84 381.064 104.98 381.688C105.528 384.044 107.731 385.19 109.17 385.712L109.246 386.068H110.443C110.456 386.068 110.468 386.068 110.468 386.068L130.932 386.349C130.919 386.374 125.673 383.547 120.095 380.733Z" fill="#92E3A9" stroke="#263238" stroke-miterlimit="10" stroke-linecap="round" stroke-linejoin="round"/>
<path d="M119.151 386.374C119.151 386.374 106.379 379.511 99.5157 376.493C92.6521 373.475 92.3847 378.135 93.1997 381.713C94.0274 385.279 98.688 386.107 98.688 386.107L119.151 386.374Z" fill="#92E3A9" stroke="#263238" stroke-miterlimit="10" stroke-linecap="round" stroke-linejoin="round"/>
<path d="M122.183 381.37H117.688C114.988 381.37 112.798 383.56 112.798 386.259H127.06C127.073 383.547 124.882 381.37 122.183 381.37Z" fill="#92E3A9" stroke="#263238" stroke-miterlimit="10" stroke-linecap="round" stroke-linejoin="round"/>
<path d="M150.276 375.588H139.885L138.535 380.733C132.957 383.547 127.711 386.374 127.711 386.374L148.174 386.094C148.174 386.094 148.187 386.094 148.2 386.094H149.397L149.473 385.737C150.912 385.215 153.128 384.069 153.663 381.713C154.338 378.746 154.261 375.041 150.276 375.588Z" fill="#92E3A9" stroke="#263238" stroke-miterlimit="10" stroke-linecap="round" stroke-linejoin="round"/>
<path d="M115.434 386.374C115.434 386.374 128.206 379.511 135.069 376.493C141.933 373.475 142.2 378.135 141.385 381.713C140.558 385.279 135.897 386.107 135.897 386.107L115.434 386.374Z" fill="#92E3A9" stroke="#263238" stroke-miterlimit="10" stroke-linecap="round" stroke-linejoin="round"/>
<path d="M171.763 473.158C171.763 473.158 164.081 455.221 158.305 452.667C152.549 450.113 100.643 455.221 100.643 455.221C100.643 455.221 75.6531 434.73 77.5785 444.966C79.5038 455.221 95.5155 467.382 99.9949 470.584C104.474 473.787 137.794 472.51 137.794 472.51L148.05 482.117L171.763 473.158Z" fill="#F7A9A0" stroke="#263238" stroke-miterlimit="10" stroke-linecap="round" stroke-linejoin="round"/>
<path d="M487.124 502.019C487.124 502.019 485.021 505.948 486.22 509.563C487.418 513.178 490.738 516.203 490.738 516.203L492.251 525.555L512.762 526.459L504.314 495.103L487.124 502.019Z" fill="#F7A9A0" stroke="#263238" stroke-miterlimit="10" stroke-linecap="round" stroke-linejoin="round"/>
<path d="M473.195 443.708C473.195 443.708 481.741 499.307 483.038 502.726C484.315 506.144 494.158 509.995 497.576 508.286C500.995 506.577 495.003 498.443 495.003 498.443L496.712 444.985C496.712 444.985 482.174 439.425 473.195 443.708Z" fill="#263238" stroke="#263238" stroke-miterlimit="10" stroke-linecap="round" stroke-linejoin="round"/>
<path d="M497.142 461.233C497.142 461.233 485.158 460.368 484.745 462.51C484.313 464.651 484.313 471.92 486.454 472.765C488.596 473.63 503.134 474.907 505.708 474.042C508.281 473.178 511.268 468.05 508.694 464.199C506.12 460.388 497.142 461.233 497.142 461.233Z" fill="#F7A9A0" stroke="#263238" stroke-miterlimit="10" stroke-linecap="round" stroke-linejoin="round"/>
<path d="M497.142 474.926C497.142 474.926 485.59 474.926 486.023 477.5C486.455 480.074 485.158 485.634 489.873 486.478C494.569 487.343 502.702 486.911 506.985 486.046C511.268 485.182 512.545 480.054 509.127 477.068C505.689 474.062 497.142 474.926 497.142 474.926Z" fill="#F7A9A0" stroke="#263238" stroke-miterlimit="10" stroke-linecap="round" stroke-linejoin="round"/>
<path d="M478.576 478.207C478.576 478.207 477.103 467.421 473.626 467.736C471.032 467.952 464.844 469.916 465.394 474.651C465.964 479.406 468.753 487.048 470.836 490.879C472.918 494.71 478.184 494.435 480.05 490.29C481.916 486.144 478.576 478.207 478.576 478.207Z" fill="#F7A9A0" stroke="#263238" stroke-miterlimit="10" stroke-linecap="round" stroke-linejoin="round"/>
<path d="M497.792 486.459C497.792 486.459 487.341 486.459 487.733 488.934C488.126 491.41 486.967 496.753 491.211 497.578C495.474 498.404 502.822 497.991 506.692 497.166C510.562 496.341 511.722 491.41 508.617 488.522C505.533 485.653 497.792 486.459 497.792 486.459Z" fill="#F7A9A0" stroke="#263238" stroke-miterlimit="10" stroke-linecap="round" stroke-linejoin="round"/>
<path d="M498.281 495.85C498.281 495.85 489.539 495.85 489.873 497.912C490.187 499.975 489.224 504.455 492.78 505.142C496.336 505.83 502.486 505.496 505.727 504.789C508.969 504.101 509.932 499.975 507.338 497.559C504.765 495.162 498.281 495.85 498.281 495.85Z" fill="#F7A9A0" stroke="#263238" stroke-miterlimit="10" stroke-linecap="round" stroke-linejoin="round"/>
<path d="M470.819 387.441C458.756 387.206 448.402 394.75 443.923 405.202C442.41 408.738 441.585 412.608 441.585 416.695C441.585 423.787 444.1 430.29 448.324 435.359C453.687 441.822 462.469 446.459 470.819 445.928C496.477 444.357 563.746 480.368 563.746 480.368V352.982C563.746 352.982 497.439 387.972 470.819 387.441Z" fill="white" stroke="#263238" stroke-miterlimit="10" stroke-linecap="round" stroke-linejoin="round"/>
<path d="M465.593 417.716C465.593 403.846 473.314 391.803 484.689 385.594C479.443 386.813 474.689 387.5 470.819 387.441C458.756 387.205 448.402 394.75 443.923 405.202C442.41 408.738 441.585 412.608 441.585 416.695C441.585 423.787 444.1 430.29 448.324 435.359C453.687 441.822 462.469 446.459 470.819 445.928C473.392 445.771 476.398 446.007 479.699 446.537C471.133 439.838 465.593 429.425 465.593 417.716Z" fill="#92E3A9" stroke="#263238" stroke-miterlimit="10" stroke-linecap="round" stroke-linejoin="round"/>
<path d="M625.592 431.738C633.911 397.56 612.949 363.109 578.771 354.79C544.593 346.47 510.143 367.433 501.823 401.611C493.504 435.788 514.466 470.239 548.644 478.559C582.822 486.878 617.273 465.915 625.592 431.738Z" fill="white" stroke="#263238" stroke-miterlimit="10" stroke-linecap="round" stroke-linejoin="round"/>
<path d="M618.029 416.675C618.029 446.655 593.727 470.958 563.746 470.958C546.949 470.958 531.919 463.335 521.978 451.311C514.159 441.92 509.483 429.838 509.483 416.655C509.483 409.072 511.035 401.881 513.825 395.319C522.116 375.929 541.35 362.353 563.746 362.353C593.707 362.392 618.029 386.695 618.029 416.675Z" fill="#A6A6A6" stroke="#263238" stroke-miterlimit="10" stroke-linecap="round" stroke-linejoin="round"/>
<path d="M563.728 403.414V429.936L521.96 451.331C514.141 441.94 509.465 429.858 509.465 416.675C509.465 409.092 511.017 401.901 513.807 395.339L563.728 403.414Z" fill="white" stroke="#263238" stroke-miterlimit="10" stroke-linecap="round" stroke-linejoin="round"/>
<path d="M576.987 416.675C576.987 424.003 571.054 429.936 563.726 429.936C556.398 429.936 550.465 424.003 550.465 416.675C550.465 409.347 556.398 403.414 563.726 403.414C571.054 403.414 576.987 409.347 576.987 416.675Z" fill="white" stroke="#263238" stroke-miterlimit="10" stroke-linecap="round" stroke-linejoin="round"/>
<path d="M487.954 526.36L485.852 517.48L513.376 514.081L512.767 526.439L487.954 526.36Z" fill="white" stroke="#263238" stroke-opacity="0.2" stroke-miterlimit="10" stroke-linecap="round" stroke-linejoin="round"/>
<path d="M146.422 485.692L140.076 475.516L169.31 460.683L171.766 473.158L146.422 485.692Z" fill="white" stroke="#263238" stroke-opacity="0.2" stroke-miterlimit="10" stroke-linecap="round" stroke-linejoin="round"/>
<path d="M324.122 470.977C324.122 470.977 277.128 465.751 272.963 467.854C268.778 469.936 209.269 540.427 209.269 540.427L172.727 467.343L141.922 480.918C141.922 480.918 180.547 612.47 186.814 614.042C193.081 615.613 252.59 575.928 252.59 575.928L226.5 707.5C226.5 707.5 234 707.5 268 707.5C321.009 707.5 367.233 713.534 373.5 701C379.767 688.466 403.984 607.755 403.984 607.755L426.44 541.449C426.44 541.449 489.603 593.138 503.709 599.405C517.795 605.672 530.86 611.409 532.412 608.285C533.984 605.162 518.325 521.625 518.325 521.625L484.907 523.197L486.479 536.242C486.479 536.242 443.139 479.347 439.485 473.59C435.831 467.854 424.868 468.895 411.823 465.241C398.778 461.567 324.122 470.977 324.122 470.977Z" fill="#F2C438" stroke="#263238" stroke-opacity="0.2" stroke-miterlimit="10" stroke-linecap="round" stroke-linejoin="round"/>
<path d="M252.59 575.908L287.58 549.798" stroke="#263238" stroke-opacity="0.2" stroke-miterlimit="10" stroke-linecap="round" stroke-linejoin="round"/>
<path d="M275.045 559.72L292.786 556.576" stroke="#263238" stroke-opacity="0.2" stroke-miterlimit="10" stroke-linecap="round" stroke-linejoin="round"/>
<path d="M426.44 541.449L438.444 499.15" stroke="#263238" stroke-opacity="0.2" stroke-miterlimit="10" stroke-linecap="round" stroke-linejoin="round"/>
<path d="M431.137 527.873L444.182 509.602" stroke="#263238" stroke-opacity="0.2" stroke-miterlimit="10" stroke-linecap="round" stroke-linejoin="round"/>
<path d="M488.03 566.615L488.561 576.949" stroke="#263238" stroke-opacity="0.2" stroke-miterlimit="10" stroke-linecap="round" stroke-linejoin="round"/>
<path d="M486.48 536.223L487.423 554.828" stroke="#263238" stroke-opacity="0.2" stroke-miterlimit="10" stroke-linecap="round" stroke-linejoin="round"/>
<path d="M209.271 540.407L220.234 563.374" stroke="#263238" stroke-opacity="0.2" stroke-miterlimit="10" stroke-linecap="round" stroke-linejoin="round"/>
<path d="M341.863 465.221L318.896 469.406C318.896 469.406 310.547 476.184 305.851 491.861C301.156 507.519 299.584 521.095 299.584 521.095L319.427 522.136L303.769 537.794C303.769 537.794 308.464 544.572 318.386 559.189C328.307 573.806 343.965 590.505 343.965 590.505L314.731 628.089C314.731 628.089 350.232 620.25 372.157 596.242C394.083 572.234 407.128 536.203 407.128 536.203L389.898 522.627L408.169 518.973C408.169 518.973 411.823 489.209 392.511 469.897C373.199 450.604 341.863 465.221 341.863 465.221Z" fill="#D9A812" stroke="#263238" stroke-miterlimit="10" stroke-linecap="round" stroke-linejoin="round"/>
<path d="M393.552 477.755C393.552 477.755 387.442 489.818 386.244 512.215C385.301 529.7 376.126 551.979 368.012 567.735C361.587 580.27 355.831 588.678 355.419 587.401C355.419 587.401 352.02 581.979 346.617 566.203C345.301 562.411 343.886 558.01 342.354 552.942C334.535 526.832 327.737 484.553 330.861 476.203C334.004 467.854 336.087 464.199 336.087 464.199C361.195 498.109 393.552 477.755 393.552 477.755Z" fill="white" stroke="#263238" stroke-miterlimit="10" stroke-linecap="round" stroke-linejoin="round"/>
<path d="M361.706 549.287L368.033 567.735C361.608 580.27 355.852 588.678 355.439 587.401C355.439 587.401 352.04 581.979 346.638 566.203L355.439 550.329L346.716 534.003L357.011 523.688L371.097 537.775L361.706 549.287Z" fill="#263238" stroke="#263238" stroke-miterlimit="10" stroke-linecap="round" stroke-linejoin="round"/>
<path d="M339.78 541.449L357.01 523.688L377.992 543.492" stroke="#263238" stroke-miterlimit="10" stroke-linecap="round" stroke-linejoin="round"/>
<path d="M336.128 464.18C336.128 464.18 336.658 479.838 342.395 494.985C348.132 510.132 357.012 523.688 357.012 523.688L381.55 488.718C381.55 488.718 354.929 491.331 336.128 464.18Z" fill="#F7A9A0" stroke="#263238" stroke-miterlimit="10" stroke-linecap="round" stroke-linejoin="round"/>
<path d="M410.804 408.856C410.804 408.856 418.25 407.677 418.25 417.873C418.25 428.07 413.927 440.624 413.927 440.624L410.804 408.856Z" fill="#F7A9A0" stroke="#263238" stroke-miterlimit="10" stroke-linecap="round" stroke-linejoin="round"/>
<path d="M408.172 371.253C408.172 371.253 413.398 418.757 413.909 432.864C414.439 446.95 412.867 459.484 408.172 465.751C403.476 472.019 384.675 497.068 374.753 498.109C364.832 499.15 353.869 493.924 349.704 490.27C345.52 486.616 325.697 455.3 325.697 455.3C325.697 455.3 310.549 454.258 306.895 434.416C303.241 414.573 323.595 419.268 323.595 419.268C323.595 419.268 312.632 402.038 311.591 385.339C310.549 368.64 307.406 362.373 352.317 361.331C397.209 360.29 408.172 371.253 408.172 371.253Z" fill="#F7A9A0" stroke="#263238" stroke-miterlimit="10" stroke-linecap="round" stroke-linejoin="round"/>
<path d="M384.674 404.671L397.209 447.991L377.896 442.254" stroke="#263238" stroke-miterlimit="10" stroke-linecap="round" stroke-linejoin="round"/>
<path d="M358.582 437.029L343.435 440.172" stroke="#263238" stroke-miterlimit="10" stroke-linecap="round" stroke-linejoin="round"/>
<path d="M351.274 439.641C351.274 439.641 354.929 453.728 371.628 456.341C388.327 458.954 396.677 455.81 396.677 455.81" stroke="#263238" stroke-miterlimit="10" stroke-linecap="round" stroke-linejoin="round"/>
<path d="M355.439 447.991C355.439 447.991 354.909 474.101 364.319 475.142C373.71 476.184 371.628 456.341 371.628 456.341C371.628 456.341 362.747 454.258 355.439 447.991Z" fill="#263238" stroke="#263238" stroke-miterlimit="10" stroke-linecap="round" stroke-linejoin="round"/>
<path d="M357.363 466.046C358.64 470.801 360.782 474.749 364.318 475.142C366.401 475.378 367.933 474.573 369.033 473.197C367.206 469.975 360.9 467.323 357.363 466.046Z" fill="#F7A9A0" stroke="#263238" stroke-miterlimit="10" stroke-linecap="round" stroke-linejoin="round"/>
<path d="M361.96 416.675C361.96 419.563 360.683 421.901 359.092 421.901C357.501 421.901 356.224 419.563 356.224 416.675C356.224 413.787 357.501 411.449 359.092 411.449C360.683 411.449 361.96 413.787 361.96 416.675Z" fill="#263238"/>
<path d="M396.952 411.979C396.952 414.867 395.675 417.205 394.083 417.205C392.492 417.205 391.215 414.867 391.215 411.979C391.215 409.091 392.492 406.754 394.083 406.754C395.655 406.754 396.952 409.091 396.952 411.979Z" fill="#263238"/>
<path d="M349.701 407.795C349.701 407.795 356.479 398.915 369.544 400.486" stroke="#263238" stroke-miterlimit="10" stroke-linecap="round" stroke-linejoin="round"/>
<path d="M386.246 398.404C386.246 398.404 393.024 385.869 403.987 392.137" stroke="#263238" stroke-miterlimit="10" stroke-linecap="round" stroke-linejoin="round"/>
<path d="M352.826 372.294C352.826 372.294 336.638 369.681 340.292 374.376C343.946 379.072 352.296 384.809 348.131 388.463C343.946 392.117 333.514 398.384 334.044 401.508C334.575 404.632 335.616 417.697 334.044 420.82C332.473 423.944 328.818 424.475 325.164 423.944C321.51 423.414 316.284 414.023 314.201 411.41C312.119 408.797 293.317 390.015 296.972 374.868C300.626 359.72 339.781 347.716 339.781 347.716C339.781 347.716 364.83 319.524 381.549 319.013C398.248 318.483 391.981 334.16 391.47 335.713C390.94 337.284 415.478 334.141 420.174 349.288C424.869 364.435 423.297 368.6 401.903 374.337C380.508 380.133 352.826 372.294 352.826 372.294Z" fill="#263238" stroke="#263238" stroke-miterlimit="10" stroke-linecap="round" stroke-linejoin="round"/>
<path d="M682.138 351.449L639.584 362.451L648.386 366.852L624.162 374.2L673.317 367.598L660.861 361.724L682.138 351.449Z" fill="#263238"/>
<path d="M690.859 455.044L647.814 446.144L653.787 453.964L628.816 449.877L675.83 465.634L667.245 454.867L690.859 455.044Z" fill="#263238"/>
<path d="M644.572 525.987L608.325 501.115L610.8 510.643L589.366 497.205L626.616 529.936L622.863 516.694L644.572 525.987Z" fill="#263238"/>
<defs>
<filter id="filter0_d_101_331" x="10" y="220" width="265" height="111" filterUnits="userSpaceOnUse" color-interpolation-filters="sRGB">
<feFlood flood-opacity="0" result="BackgroundImageFix"/>
<feColorMatrix in="SourceAlpha" type="matrix" values="0 0 0 0 0 0 0 0 0 0 0 0 0 0 0 0 0 0 127 0" result="hardAlpha"/>
<feOffset dx="6"/>
<feGaussianBlur stdDeviation="11"/>
<feComposite in2="hardAlpha" operator="out"/>
<feColorMatrix type="matrix" values="0 0 0 0 0.847934 0 0 0 0 0.920833 0 0 0 0 0.886386 0 0 0 0.5 0"/>
<feBlend mode="normal" in2="BackgroundImageFix" result="effect1_dropShadow_101_331"/>
<feBlend mode="normal" in="SourceGraphic" in2="effect1_dropShadow_101_331" result="shape"/>
</filter>
<filter id="filter1_d_101_331" x="418" y="586" width="265" height="111" filterUnits="userSpaceOnUse" color-interpolation-filters="sRGB">
<feFlood flood-opacity="0" result="BackgroundImageFix"/>
<feColorMatrix in="SourceAlpha" type="matrix" values="0 0 0 0 0 0 0 0 0 0 0 0 0 0 0 0 0 0 127 0" result="hardAlpha"/>
<feOffset dx="6"/>
<feGaussianBlur stdDeviation="11"/>
<feComposite in2="hardAlpha" operator="out"/>
<feColorMatrix type="matrix" values="0 0 0 0 0.847934 0 0 0 0 0.920833 0 0 0 0 0.886386 0 0 0 0.5 0"/>
<feBlend mode="normal" in2="BackgroundImageFix" result="effect1_dropShadow_101_331"/>
<feBlend mode="normal" in="SourceGraphic" in2="effect1_dropShadow_101_331" result="shape"/>
</filter>
</defs>
</svg>
