<svg width="197" height="50" viewBox="0 0 197 50" fill="none" xmlns="http://www.w3.org/2000/svg">
<rect y="15" width="197" height="20" rx="4" fill="#F1F1F1"/>
<rect y="13" width="109" height="24" rx="4" fill="#F2C438"/>
<path d="M101 20C101 21.2 101 27.1667 101 30" stroke="#2F3733" stroke-linecap="round"/>
<path d="M99 22C99 22.72 99 26.3 99 28" stroke="#2F3733" stroke-linecap="round"/>
<path d="M97 21C97 21.96 97 26.7333 97 29" stroke="#2F3733" stroke-linecap="round"/>
<path d="M3.416 3.944V4.528L1.552 4.544L1.4 5.872C1.464 5.86133 1.536 5.85333 1.616 5.848C1.696 5.83733 1.78133 5.832 1.872 5.832C2.06933 5.832 2.26933 5.85867 2.472 5.912C2.68 5.96533 2.86667 6.05333 3.032 6.176C3.19733 6.29333 3.33333 6.45067 3.44 6.648C3.54667 6.84 3.6 7.07733 3.6 7.36C3.6 7.6 3.55733 7.824 3.472 8.032C3.38667 8.24 3.25867 8.42133 3.088 8.576C2.92267 8.73067 2.71467 8.85333 2.464 8.944C2.21867 9.02933 1.93333 9.072 1.608 9.072C1.42133 9.072 1.22933 9.05067 1.032 9.008C0.834667 8.96533 0.658667 8.90667 0.504 8.832L0.664 8.264C0.792 8.328 0.936 8.38133 1.096 8.424C1.256 8.46667 1.42133 8.488 1.592 8.488C1.99733 8.488 2.30933 8.39733 2.528 8.216C2.752 8.02933 2.864 7.752 2.864 7.384C2.864 7.208 2.832 7.056 2.768 6.928C2.70933 6.79467 2.624 6.68533 2.512 6.6C2.40533 6.51467 2.27733 6.45067 2.128 6.408C1.97867 6.36533 1.816 6.344 1.64 6.344C1.496 6.344 1.34933 6.35467 1.2 6.376C1.05067 6.392 0.898667 6.416 0.744 6.448L0.992 3.96L3.416 3.944ZM6.43681 3.888C6.71415 3.888 6.97281 3.93867 7.21281 4.04C7.45281 4.136 7.66081 4.288 7.83681 4.496C8.01281 4.704 8.14881 4.97333 8.24481 5.304C8.34615 5.62933 8.39681 6.02133 8.39681 6.48C8.39681 6.93867 8.34348 7.33333 8.23681 7.664C8.13015 7.98933 7.98615 8.256 7.80481 8.464C7.62348 8.672 7.41548 8.82667 7.18081 8.928C6.94615 9.024 6.69815 9.072 6.43681 9.072C6.15415 9.072 5.89281 9.024 5.65281 8.928C5.41815 8.82667 5.21281 8.672 5.03681 8.464C4.86081 8.256 4.72215 7.98933 4.62081 7.664C4.52481 7.33333 4.47681 6.93867 4.47681 6.48C4.47681 6.04267 4.53015 5.66133 4.63681 5.336C4.74348 5.01067 4.88481 4.74133 5.06081 4.528C5.24215 4.30933 5.45015 4.14933 5.68481 4.048C5.92481 3.94133 6.17548 3.888 6.43681 3.888ZM5.21281 6.48C5.21281 6.90133 5.24748 7.24533 5.31681 7.512C5.38615 7.77333 5.47681 7.97867 5.58881 8.128C5.70081 8.27733 5.83148 8.38133 5.98081 8.44C6.13015 8.49333 6.28481 8.52 6.44481 8.52C6.60481 8.52 6.75681 8.49067 6.90081 8.432C7.05015 8.368 7.18081 8.25867 7.29281 8.104C7.40481 7.944 7.49281 7.73333 7.55681 7.472C7.62615 7.21067 7.66081 6.88 7.66081 6.48C7.66081 6.064 7.62615 5.72267 7.55681 5.456C7.48748 5.18933 7.39681 4.98133 7.28481 4.832C7.17281 4.68267 7.04215 4.58133 6.89281 4.528C6.74348 4.46933 6.58881 4.44 6.42881 4.44C6.26881 4.44 6.11415 4.472 5.96481 4.536C5.82081 4.59467 5.69281 4.704 5.58081 4.864C5.46881 5.01867 5.37815 5.22667 5.30881 5.488C5.24481 5.74933 5.21281 6.08 5.21281 6.48ZM9.69438 3.96L10.9024 5.928L12.1664 3.96H12.9744L11.3184 6.44L13.0544 9H12.2064L10.9024 6.952L9.59038 9H8.78238L10.4624 6.44L8.85438 3.96H9.69438Z" fill="#C4C4C4"/>
<path d="M181.68 5.96H182.192V11H181.504V6.696L180.6 7.112L180.44 6.528L181.68 5.96ZM185.218 5.888C185.495 5.888 185.754 5.93867 185.994 6.04C186.234 6.136 186.442 6.288 186.618 6.496C186.794 6.704 186.93 6.97333 187.026 7.304C187.127 7.62933 187.178 8.02133 187.178 8.48C187.178 8.93867 187.125 9.33333 187.018 9.664C186.911 9.98933 186.767 10.256 186.586 10.464C186.405 10.672 186.197 10.8267 185.962 10.928C185.727 11.024 185.479 11.072 185.218 11.072C184.935 11.072 184.674 11.024 184.434 10.928C184.199 10.8267 183.994 10.672 183.818 10.464C183.642 10.256 183.503 9.98933 183.402 9.664C183.306 9.33333 183.258 8.93867 183.258 8.48C183.258 8.04267 183.311 7.66133 183.418 7.336C183.525 7.01067 183.666 6.74133 183.842 6.528C184.023 6.30933 184.231 6.14933 184.466 6.048C184.706 5.94133 184.957 5.888 185.218 5.888ZM183.994 8.48C183.994 8.90133 184.029 9.24533 184.098 9.512C184.167 9.77333 184.258 9.97867 184.37 10.128C184.482 10.2773 184.613 10.3813 184.762 10.44C184.911 10.4933 185.066 10.52 185.226 10.52C185.386 10.52 185.538 10.4907 185.682 10.432C185.831 10.368 185.962 10.2587 186.074 10.104C186.186 9.944 186.274 9.73333 186.338 9.472C186.407 9.21067 186.442 8.88 186.442 8.48C186.442 8.064 186.407 7.72267 186.338 7.456C186.269 7.18933 186.178 6.98133 186.066 6.832C185.954 6.68267 185.823 6.58133 185.674 6.528C185.525 6.46933 185.37 6.44 185.21 6.44C185.05 6.44 184.895 6.472 184.746 6.536C184.602 6.59467 184.474 6.704 184.362 6.864C184.25 7.01867 184.159 7.22667 184.09 7.488C184.026 7.74933 183.994 8.08 183.994 8.48ZM189.82 5.888C190.097 5.888 190.356 5.93867 190.596 6.04C190.836 6.136 191.044 6.288 191.22 6.496C191.396 6.704 191.532 6.97333 191.628 7.304C191.729 7.62933 191.78 8.02133 191.78 8.48C191.78 8.93867 191.726 9.33333 191.62 9.664C191.513 9.98933 191.369 10.256 191.188 10.464C191.006 10.672 190.798 10.8267 190.564 10.928C190.329 11.024 190.081 11.072 189.82 11.072C189.537 11.072 189.276 11.024 189.036 10.928C188.801 10.8267 188.596 10.672 188.42 10.464C188.244 10.256 188.105 9.98933 188.004 9.664C187.908 9.33333 187.86 8.93867 187.86 8.48C187.86 8.04267 187.913 7.66133 188.02 7.336C188.126 7.01067 188.268 6.74133 188.444 6.528C188.625 6.30933 188.833 6.14933 189.068 6.048C189.308 5.94133 189.558 5.888 189.82 5.888ZM188.596 8.48C188.596 8.90133 188.63 9.24533 188.7 9.512C188.769 9.77333 188.86 9.97867 188.972 10.128C189.084 10.2773 189.214 10.3813 189.364 10.44C189.513 10.4933 189.668 10.52 189.828 10.52C189.988 10.52 190.14 10.4907 190.284 10.432C190.433 10.368 190.564 10.2587 190.676 10.104C190.788 9.944 190.876 9.73333 190.94 9.472C191.009 9.21067 191.044 8.88 191.044 8.48C191.044 8.064 191.009 7.72267 190.94 7.456C190.87 7.18933 190.78 6.98133 190.668 6.832C190.556 6.68267 190.425 6.58133 190.276 6.528C190.126 6.46933 189.972 6.44 189.812 6.44C189.652 6.44 189.497 6.472 189.348 6.536C189.204 6.59467 189.076 6.704 188.964 6.864C188.852 7.01867 188.761 7.22667 188.692 7.488C188.628 7.74933 188.596 8.08 188.596 8.48ZM193.077 5.96L194.285 7.928L195.549 5.96H196.357L194.701 8.44L196.437 11H195.589L194.285 8.952L192.973 11H192.165L193.845 8.44L192.237 5.96H193.077Z" fill="#C4C4C4"/>
<path d="M166.835 42.96H167.475L169.771 46.152C169.857 46.2693 169.939 46.3893 170.019 46.512C170.099 46.6347 170.171 46.7547 170.235 46.872H170.251C170.241 46.6853 170.233 46.4987 170.227 46.312C170.222 46.1253 170.219 45.9387 170.219 45.752V42.96H170.939V48H170.299L168.027 44.848C167.947 44.736 167.865 44.6107 167.779 44.472C167.694 44.328 167.614 44.1867 167.539 44.048H167.523C167.534 44.272 167.542 44.496 167.547 44.72C167.553 44.944 167.555 45.168 167.555 45.392V48H166.835V42.96ZM174.41 42.888C174.704 42.888 174.968 42.9093 175.202 42.952C175.442 42.9947 175.664 43.0693 175.866 43.176L175.69 43.752C175.493 43.6613 175.298 43.5947 175.106 43.552C174.92 43.5093 174.717 43.488 174.498 43.488C174.264 43.488 174.04 43.5227 173.826 43.592C173.613 43.6613 173.424 43.776 173.258 43.936C173.098 44.0907 172.97 44.296 172.874 44.552C172.778 44.8027 172.73 45.1147 172.73 45.488C172.73 46.1333 172.877 46.624 173.17 46.96C173.464 47.296 173.877 47.464 174.41 47.464C174.613 47.464 174.786 47.4533 174.93 47.432C175.08 47.4107 175.224 47.3733 175.362 47.32V45.92H174.41V45.344H176.05V47.776C175.837 47.8613 175.6 47.9333 175.338 47.992C175.077 48.0453 174.768 48.072 174.41 48.072C174.064 48.072 173.738 48.016 173.434 47.904C173.136 47.792 172.874 47.6267 172.65 47.408C172.426 47.1893 172.25 46.92 172.122 46.6C171.994 46.28 171.93 45.9093 171.93 45.488C171.93 45.0667 171.992 44.6933 172.114 44.368C172.242 44.0427 172.416 43.7707 172.634 43.552C172.853 43.3333 173.114 43.168 173.418 43.056C173.722 42.944 174.053 42.888 174.41 42.888ZM177.156 42.96H177.796L180.092 46.152C180.177 46.2693 180.26 46.3893 180.34 46.512C180.42 46.6347 180.492 46.7547 180.556 46.872H180.572C180.561 46.6853 180.553 46.4987 180.548 46.312C180.542 46.1253 180.54 45.9387 180.54 45.752V42.96H181.26V48H180.62L178.348 44.848C178.268 44.736 178.185 44.6107 178.1 44.472C178.014 44.328 177.934 44.1867 177.86 44.048H177.844C177.854 44.272 177.862 44.496 177.868 44.72C177.873 44.944 177.876 45.168 177.876 45.392V48H177.156V42.96ZM187.08 42.944V43.528L185.216 43.544L185.064 44.872C185.128 44.8613 185.2 44.8533 185.28 44.848C185.36 44.8373 185.445 44.832 185.536 44.832C185.733 44.832 185.933 44.8587 186.136 44.912C186.344 44.9653 186.531 45.0533 186.696 45.176C186.861 45.2933 186.997 45.4507 187.104 45.648C187.211 45.84 187.264 46.0773 187.264 46.36C187.264 46.6 187.221 46.824 187.136 47.032C187.051 47.24 186.923 47.4213 186.752 47.576C186.587 47.7307 186.379 47.8533 186.128 47.944C185.883 48.0293 185.597 48.072 185.272 48.072C185.085 48.072 184.893 48.0507 184.696 48.008C184.499 47.9653 184.323 47.9067 184.168 47.832L184.328 47.264C184.456 47.328 184.6 47.3813 184.76 47.424C184.92 47.4667 185.085 47.488 185.256 47.488C185.661 47.488 185.973 47.3973 186.192 47.216C186.416 47.0293 186.528 46.752 186.528 46.384C186.528 46.208 186.496 46.056 186.432 45.928C186.373 45.7947 186.288 45.6853 186.176 45.6C186.069 45.5147 185.941 45.4507 185.792 45.408C185.643 45.3653 185.48 45.344 185.304 45.344C185.16 45.344 185.013 45.3547 184.864 45.376C184.715 45.392 184.563 45.416 184.408 45.448L184.656 42.96L187.08 42.944ZM190.101 42.888C190.378 42.888 190.637 42.9387 190.877 43.04C191.117 43.136 191.325 43.288 191.501 43.496C191.677 43.704 191.813 43.9733 191.909 44.304C192.01 44.6293 192.061 45.0213 192.061 45.48C192.061 45.9387 192.008 46.3333 191.901 46.664C191.794 46.9893 191.65 47.256 191.469 47.464C191.288 47.672 191.08 47.8267 190.845 47.928C190.61 48.024 190.362 48.072 190.101 48.072C189.818 48.072 189.557 48.024 189.317 47.928C189.082 47.8267 188.877 47.672 188.701 47.464C188.525 47.256 188.386 46.9893 188.285 46.664C188.189 46.3333 188.141 45.9387 188.141 45.48C188.141 45.0427 188.194 44.6613 188.301 44.336C188.408 44.0107 188.549 43.7413 188.725 43.528C188.906 43.3093 189.114 43.1493 189.349 43.048C189.589 42.9413 189.84 42.888 190.101 42.888ZM188.877 45.48C188.877 45.9013 188.912 46.2453 188.981 46.512C189.05 46.7733 189.141 46.9787 189.253 47.128C189.365 47.2773 189.496 47.3813 189.645 47.44C189.794 47.4933 189.949 47.52 190.109 47.52C190.269 47.52 190.421 47.4907 190.565 47.432C190.714 47.368 190.845 47.2587 190.957 47.104C191.069 46.944 191.157 46.7333 191.221 46.472C191.29 46.2107 191.325 45.88 191.325 45.48C191.325 45.064 191.29 44.7227 191.221 44.456C191.152 44.1893 191.061 43.9813 190.949 43.832C190.837 43.6827 190.706 43.5813 190.557 43.528C190.408 43.4693 190.253 43.44 190.093 43.44C189.933 43.44 189.778 43.472 189.629 43.536C189.485 43.5947 189.357 43.704 189.245 43.864C189.133 44.0187 189.042 44.2267 188.973 44.488C188.909 44.7493 188.877 45.08 188.877 45.48ZM194.702 42.888C194.98 42.888 195.238 42.9387 195.478 43.04C195.718 43.136 195.926 43.288 196.102 43.496C196.278 43.704 196.414 43.9733 196.51 44.304C196.612 44.6293 196.662 45.0213 196.662 45.48C196.662 45.9387 196.609 46.3333 196.502 46.664C196.396 46.9893 196.252 47.256 196.07 47.464C195.889 47.672 195.681 47.8267 195.446 47.928C195.212 48.024 194.964 48.072 194.702 48.072C194.42 48.072 194.158 48.024 193.918 47.928C193.684 47.8267 193.478 47.672 193.302 47.464C193.126 47.256 192.988 46.9893 192.886 46.664C192.79 46.3333 192.742 45.9387 192.742 45.48C192.742 45.0427 192.796 44.6613 192.902 44.336C193.009 44.0107 193.15 43.7413 193.326 43.528C193.508 43.3093 193.716 43.1493 193.95 43.048C194.19 42.9413 194.441 42.888 194.702 42.888ZM193.478 45.48C193.478 45.9013 193.513 46.2453 193.582 46.512C193.652 46.7733 193.742 46.9787 193.854 47.128C193.966 47.2773 194.097 47.3813 194.246 47.44C194.396 47.4933 194.55 47.52 194.71 47.52C194.87 47.52 195.022 47.4907 195.166 47.432C195.316 47.368 195.446 47.2587 195.558 47.104C195.67 46.944 195.758 46.7333 195.822 46.472C195.892 46.2107 195.926 45.88 195.926 45.48C195.926 45.064 195.892 44.7227 195.822 44.456C195.753 44.1893 195.662 43.9813 195.55 43.832C195.438 43.6827 195.308 43.5813 195.158 43.528C195.009 43.4693 194.854 43.44 194.694 43.44C194.534 43.44 194.38 43.472 194.23 43.536C194.086 43.5947 193.958 43.704 193.846 43.864C193.734 44.0187 193.644 44.2267 193.574 44.488C193.51 44.7493 193.478 45.08 193.478 45.48Z" fill="black"/>
</svg>
