<svg width="271" height="48" viewBox="0 0 271 48" fill="none" xmlns="http://www.w3.org/2000/svg">
<rect x="103" y="25" width="162" height="11" fill="#F2C438"/>
<path d="M14.28 10.32C16.0933 10.32 17.7733 10.6267 19.32 11.24C20.8667 11.8267 22.2 12.68 23.32 13.8C24.44 14.92 25.3067 16.2933 25.92 17.92C26.56 19.5467 26.88 21.3867 26.88 23.44C26.88 25.44 26.5467 27.24 25.88 28.84C25.24 30.44 24.3467 31.8133 23.2 32.96C22.08 34.08 20.7333 34.9467 19.16 35.56C17.6133 36.1467 15.9333 36.44 14.12 36.44C12.3067 36.44 10.6267 36.1467 9.08 35.56C7.53333 34.9733 6.2 34.1333 5.08 33.04C3.96 31.92 3.08 30.56 2.44 28.96C1.82667 27.3333 1.52 25.4933 1.52 23.44C1.52 21.44 1.84 19.64 2.48 18.04C3.12 16.4133 4.01333 15.0267 5.16 13.88C6.30667 12.7333 7.65333 11.8533 9.2 11.24C10.7733 10.6267 12.4667 10.32 14.28 10.32ZM7.92 23.44C7.92 24.8533 8.08 26.0933 8.4 27.16C8.74667 28.2267 9.21333 29.1067 9.8 29.8C10.3867 30.4933 11.0533 31.0133 11.8 31.36C12.5733 31.7067 13.4 31.88 14.28 31.88C15.1333 31.88 15.9333 31.7067 16.68 31.36C17.4533 31.0133 18.12 30.4933 18.68 29.8C19.24 29.1067 19.68 28.2267 20 27.16C20.32 26.0933 20.48 24.8533 20.48 23.44C20.48 21.9733 20.3067 20.7067 19.96 19.64C19.64 18.5467 19.1867 17.6533 18.6 16.96C18.0133 16.2667 17.3333 15.7467 16.56 15.4C15.8133 15.0533 15 14.88 14.12 14.88C13.2667 14.88 12.4533 15.0667 11.68 15.44C10.9333 15.7867 10.28 16.32 9.72 17.04C9.16 17.76 8.72 18.6533 8.4 19.72C8.08 20.7867 7.92 22.0267 7.92 23.44ZM31.0384 10.8H37.1184V25.88C37.1184 27.7733 37.5051 29.24 38.2784 30.28C39.0518 31.32 40.2518 31.84 41.8784 31.84C43.4784 31.84 44.6251 31.3333 45.3184 30.32C46.0384 29.28 46.3984 27.96 46.3984 26.36V10.8H52.4784V25.84C52.4784 32.9067 48.9451 36.44 41.8784 36.44C38.5184 36.44 35.8651 35.56 33.9184 33.8C31.9984 32.04 31.0384 29.32 31.0384 25.64V10.8ZM57.7572 10.8H67.7572C69.1972 10.8 70.4639 11.0133 71.5572 11.44C72.6772 11.84 73.5972 12.4 74.3172 13.12C75.0639 13.84 75.6239 14.68 75.9972 15.64C76.3705 16.6 76.5572 17.6267 76.5572 18.72C76.5572 19.76 76.3972 20.68 76.0772 21.48C75.7839 22.2533 75.3972 22.9333 74.9172 23.52C74.4372 24.1067 73.9172 24.5867 73.3572 24.96C72.7972 25.3333 72.2772 25.6267 71.7972 25.84L77.8372 36H70.8372L66.3572 26.92H63.8372V36H57.7572V10.8ZM63.8372 22.32H65.6772C67.0639 22.32 68.1839 22.04 69.0372 21.48C69.8905 20.92 70.3172 20.0133 70.3172 18.76C70.3172 17.72 69.9705 16.8933 69.2772 16.28C68.5839 15.6667 67.5839 15.36 66.2772 15.36H63.8372V22.32ZM90.3744 10.8H99.4944C101.014 10.8 102.388 10.9733 103.614 11.32C104.841 11.6667 105.881 12.1733 106.734 12.84C107.614 13.5067 108.281 14.32 108.734 15.28C109.214 16.2133 109.454 17.2933 109.454 18.52C109.454 19.9867 109.174 21.2533 108.614 22.32C108.054 23.3867 107.294 24.28 106.334 25C105.401 25.6933 104.294 26.2133 103.014 26.56C101.761 26.88 100.428 27.04 99.0144 27.04H96.4544V36H90.3744V10.8ZM96.4544 22.44H98.6544C99.241 22.44 99.8144 22.3733 100.374 22.24C100.934 22.1067 101.414 21.9067 101.814 21.64C102.241 21.3467 102.574 20.9733 102.814 20.52C103.081 20.0667 103.214 19.5067 103.214 18.84C103.214 17.6933 102.814 16.8267 102.014 16.24C101.241 15.6533 100.201 15.36 98.8944 15.36H96.4544V22.44ZM118.081 10.8H124.561L133.641 36H127.201L125.481 30.6H117.001L115.281 36H108.921L118.081 10.8ZM118.321 26.2H124.081L123.121 23.16C122.801 22.1733 122.468 21.12 122.121 20C121.801 18.88 121.521 17.8533 121.281 16.92H121.201C120.935 17.8533 120.628 18.8667 120.281 19.96C119.935 21.0533 119.601 22.12 119.281 23.16L118.321 26.2ZM137.015 10.8H147.015C148.455 10.8 149.722 11.0133 150.815 11.44C151.935 11.84 152.855 12.4 153.575 13.12C154.322 13.84 154.882 14.68 155.255 15.64C155.628 16.6 155.815 17.6267 155.815 18.72C155.815 19.76 155.655 20.68 155.335 21.48C155.042 22.2533 154.655 22.9333 154.175 23.52C153.695 24.1067 153.175 24.5867 152.615 24.96C152.055 25.3333 151.535 25.6267 151.055 25.84L157.095 36H150.095L145.615 26.92H143.095V36H137.015V10.8ZM143.095 22.32H144.935C146.322 22.32 147.442 22.04 148.295 21.48C149.148 20.92 149.575 20.0133 149.575 18.76C149.575 17.72 149.228 16.8933 148.535 16.28C147.842 15.6667 146.842 15.36 145.535 15.36H143.095V22.32ZM177.58 10.8V15.52H170.7V36H164.62V15.52H157.9V10.8H177.58ZM180.57 10.8H186.17L191.69 19.24C192.676 20.76 193.623 22.32 194.53 23.92C195.463 25.4933 196.183 26.92 196.69 28.2H196.77C196.636 26.6 196.556 25 196.53 23.4C196.503 21.7733 196.49 20.16 196.49 18.56V10.8H202.09V36H196.49L190.65 27.4C189.69 25.9867 188.81 24.5467 188.01 23.08C187.21 21.6133 186.53 20.0667 185.97 18.44H185.89C186.023 20.12 186.103 21.7333 186.13 23.28C186.156 24.8267 186.17 26.4 186.17 28V36H180.57V10.8ZM207.367 10.8H224.167V15.44H213.447V20.6H223.127V25.2H213.447V31.36H224.287V36H207.367V10.8ZM228.304 10.8H238.304C239.744 10.8 241.011 11.0133 242.104 11.44C243.224 11.84 244.144 12.4 244.864 13.12C245.611 13.84 246.171 14.68 246.544 15.64C246.917 16.6 247.104 17.6267 247.104 18.72C247.104 19.76 246.944 20.68 246.624 21.48C246.331 22.2533 245.944 22.9333 245.464 23.52C244.984 24.1067 244.464 24.5867 243.904 24.96C243.344 25.3333 242.824 25.6267 242.344 25.84L248.384 36H241.384L236.904 26.92H234.384V36H228.304V10.8ZM234.384 22.32H236.224C237.611 22.32 238.731 22.04 239.584 21.48C240.437 20.92 240.864 20.0133 240.864 18.76C240.864 17.72 240.517 16.8933 239.824 16.28C239.131 15.6667 238.131 15.36 236.824 15.36H234.384V22.32ZM260.144 10.32C261.904 10.32 263.424 10.5067 264.704 10.88C265.984 11.2267 267.091 11.6533 268.024 12.16L266.664 16.6C265.624 16.0667 264.571 15.6533 263.504 15.36C262.464 15.04 261.464 14.88 260.504 14.88C259.278 14.88 258.344 15.1067 257.704 15.56C257.064 16.0133 256.744 16.6133 256.744 17.36C256.744 18.2133 257.051 18.84 257.664 19.24C258.278 19.6133 259.224 20.0133 260.504 20.44L262.864 21.2C263.798 21.52 264.664 21.92 265.464 22.4C266.264 22.8533 266.944 23.3867 267.504 24C268.091 24.6133 268.544 25.3067 268.864 26.08C269.184 26.8533 269.344 27.6933 269.344 28.6C269.344 29.6667 269.144 30.68 268.744 31.64C268.344 32.5733 267.731 33.4 266.904 34.12C266.104 34.84 265.078 35.4133 263.824 35.84C262.598 36.24 261.144 36.44 259.464 36.44C257.891 36.44 256.384 36.28 254.944 35.96C253.531 35.6133 252.224 35.1333 251.024 34.52L252.384 30.08C253.531 30.64 254.651 31.08 255.744 31.4C256.838 31.72 257.984 31.88 259.184 31.88C260.598 31.88 261.611 31.6533 262.224 31.2C262.864 30.72 263.184 30.08 263.184 29.28C263.184 29.0133 263.131 28.7467 263.024 28.48C262.918 28.2133 262.704 27.9467 262.384 27.68C262.091 27.4133 261.664 27.16 261.104 26.92C260.571 26.6533 259.878 26.3867 259.024 26.12L257.064 25.44C256.131 25.0933 255.264 24.7067 254.464 24.28C253.664 23.8533 252.971 23.3467 252.384 22.76C251.824 22.1733 251.384 21.4933 251.064 20.72C250.744 19.9467 250.584 19.0267 250.584 17.96C250.584 16.8667 250.784 15.8533 251.184 14.92C251.611 13.9867 252.224 13.1867 253.024 12.52C253.851 11.8267 254.851 11.2933 256.024 10.92C257.224 10.52 258.598 10.32 260.144 10.32Z" fill="#2F3733"/>
</svg>
