<svg width="279" height="148" viewBox="0 0 279 148" fill="none" xmlns="http://www.w3.org/2000/svg">
<path d="M72.0724 97.1223L72.3316 98.0881L72.0724 97.1223ZM152.864 1V2V1ZM130.996 139.85L131.659 139.102L130.996 139.85ZM278.63 84.9005C279.059 84.5528 279.125 83.9231 278.777 83.494L273.11 76.5019C272.763 76.0729 272.133 76.0069 271.704 76.3547C271.275 76.7024 271.209 77.3321 271.556 77.7612L276.593 83.9764L270.378 89.0134C269.949 89.3611 269.883 89.9909 270.231 90.4199C270.579 90.849 271.208 90.9149 271.638 90.5672L278.63 84.9005ZM0.953129 1.99891C2.67931 2.0799 4.33745 2.21089 5.93032 2.38921L6.15283 0.40163C4.5151 0.218281 2.81396 0.0840219 1.04687 0.00110501L0.953129 1.99891ZM15.5325 4.22752C18.8954 5.18107 21.8748 6.40472 24.518 7.85538L25.4802 6.10208C22.696 4.57402 19.5757 3.2951 16.0781 2.30337L15.5325 4.22752ZM32.2844 13.6049C34.6243 15.9063 36.5688 18.4797 38.191 21.2622L39.9188 20.2549C38.2158 17.3338 36.1649 14.6163 33.6869 12.179L32.2844 13.6049ZM42.1592 30.1621C43.1835 33.2209 43.969 36.4155 44.5829 39.6856L46.5485 39.3165C45.9214 35.9762 45.1149 32.69 44.0557 29.527L42.1592 30.1621ZM45.9592 49.477C46.2971 52.791 46.5321 56.1106 46.7319 59.3786L48.7282 59.2566C48.5277 55.9774 48.2908 52.6272 47.9489 49.2742L45.9592 49.477ZM47.3172 69.3296C47.5451 72.85 47.82 76.2259 48.2446 79.3519L50.2264 79.0827C49.8112 76.0265 49.5399 72.7056 49.313 69.2004L47.3172 69.3296ZM50.5556 89.2589C51.9288 92.8368 53.9397 95.7258 56.9797 97.468L57.9741 95.7328C55.4653 94.2949 53.6951 91.8573 52.4229 88.5423L50.5556 89.2589ZM67.2617 99.0915C68.8293 98.9077 70.516 98.5754 72.3316 98.0881L71.8131 96.1565C70.076 96.6227 68.4855 96.9343 67.0287 97.1051L67.2617 99.0915ZM72.3316 98.0881C74.0809 97.6185 75.6801 96.9604 77.1455 96.1312L76.1606 94.3905C74.8452 95.1348 73.4032 95.7297 71.8131 96.1565L72.3316 98.0881ZM84.5716 89.0924C86.3728 86.4533 87.8305 83.3955 89.0771 80.0589L87.2036 79.3589C85.993 82.5992 84.6022 85.4997 82.9197 87.9649L84.5716 89.0924ZM92.0159 70.506C92.8245 67.4047 93.5732 64.1676 94.3282 60.8718L92.3787 60.4252C91.6233 63.7227 90.8807 66.9327 90.0806 70.0014L92.0159 70.506ZM96.5826 51.2619C97.3686 48.0876 98.2188 44.9129 99.1905 41.789L97.2807 41.195C96.2936 44.3685 95.433 47.5836 94.6413 50.7812L96.5826 51.2619ZM102.535 32.6019C103.824 29.5942 105.294 26.699 107.001 23.97L105.306 22.9091C103.535 25.7394 102.019 28.7284 100.697 31.8142L102.535 32.6019ZM112.905 16.3272C115.077 14.0574 117.531 11.9912 120.319 10.1782L119.228 8.50149C116.306 10.4019 113.735 12.5679 111.46 14.9442L112.905 16.3272ZM128.938 5.84423C131.768 4.77608 134.863 3.90686 138.253 3.2669L137.882 1.30161C134.385 1.96172 131.178 2.86123 128.232 3.97306L128.938 5.84423ZM147.92 2.13016C149.514 2.04406 151.162 2 152.864 2V0C151.127 -1.19209e-07 149.444 0.0449518 147.812 0.133065L147.92 2.13016ZM152.864 2C154.692 2 156.426 2.03574 158.07 2.10597L158.156 0.107792C156.48 0.0362483 154.717 1.19209e-07 152.864 0V2ZM167.884 3.09697C171.825 3.78741 174.916 4.78453 177.281 6.0311L178.214 4.26173C175.61 2.89001 172.305 1.84118 168.23 1.12699L167.884 3.09697ZM183.369 12.7664C184.172 15.4004 183.968 18.5416 182.882 22.1644L184.798 22.7385C185.947 18.906 186.243 15.3326 185.282 12.1828L183.369 12.7664ZM178.923 31.2691C177.432 34.0176 175.656 36.9006 173.665 39.8936L175.33 41.0014C177.344 37.9743 179.154 35.0383 180.681 32.2226L178.923 31.2691ZM167.876 48.1452C165.933 50.8036 163.887 53.5178 161.782 56.2734L163.371 57.4874C165.481 54.7259 167.536 51.9995 169.491 49.3257L167.876 48.1452ZM155.596 64.3104C153.535 66.9817 151.459 69.6763 149.408 72.3786L151.001 73.5878C153.046 70.8925 155.118 68.2035 157.18 65.5324L155.596 64.3104ZM143.328 80.5505C141.3 83.3457 139.338 86.1367 137.485 88.9077L139.147 90.0195C140.983 87.2743 142.93 84.5047 144.947 81.725L143.328 80.5505ZM132.052 97.5603C130.26 100.64 128.663 103.679 127.324 106.655L129.148 107.475C130.453 104.576 132.016 101.599 133.78 98.5659L132.052 97.5603ZM123.882 116.409C123.011 120.016 122.679 123.502 123.044 126.808L125.031 126.588C124.698 123.565 124.995 120.317 125.826 116.878L123.882 116.409ZM126.77 136.669C127.756 138.05 128.939 139.361 130.332 140.597L131.659 139.102C130.372 137.959 129.291 136.759 128.398 135.508L126.77 136.669ZM130.332 140.597C131.81 141.909 133.246 143.034 134.648 143.981L135.768 142.324C134.448 141.432 133.081 140.364 131.659 139.102L130.332 140.597ZM144.902 147.947C148.665 148.252 152.182 147.22 155.606 145.281L154.62 143.541C151.449 145.336 148.331 146.218 145.063 145.954L144.902 147.947ZM164.193 138.683C166.619 136.418 169.104 133.84 171.702 131.08L170.245 129.709C167.653 132.464 165.204 135.003 162.829 137.221L164.193 138.683ZM178.967 123.341C181.316 120.873 183.785 118.345 186.41 115.821L185.024 114.379C182.37 116.931 179.88 119.481 177.518 121.962L178.967 123.341ZM194.254 108.763C196.885 106.565 199.666 104.417 202.621 102.365L201.48 100.722C198.471 102.812 195.643 104.996 192.972 107.228L194.254 108.763ZM211.562 96.7968C214.54 95.1495 217.679 93.6133 220.996 92.221L220.223 90.3768C216.836 91.7981 213.632 93.3661 210.594 95.0468L211.562 96.7968ZM230.896 88.6878C234.14 87.7239 237.539 86.8963 241.105 86.2279L240.736 84.2622C237.103 84.9432 233.637 85.7871 230.326 86.7706L230.896 88.6878ZM251.568 84.7883C254.924 84.4862 258.413 84.3187 262.044 84.3007L262.034 82.3007C258.348 82.319 254.802 82.4891 251.389 82.7963L251.568 84.7883ZM272.563 84.6513C274.311 84.7737 276.088 84.9289 277.896 85.1182L278.104 83.1291C276.274 82.9374 274.474 82.7802 272.703 82.6562L272.563 84.6513Z" fill="#979797"/>
</svg>
