<svg width="59" height="21" viewBox="0 0 59 21" fill="none" xmlns="http://www.w3.org/2000/svg">
<rect width="59" height="21" rx="8" fill="url(#paint0_linear_81_499)"/>
<rect width="59" height="21" rx="8" fill="black" fill-opacity="0.2"/>
<path d="M19.341 5.693C19.7397 5.693 20.1253 5.72767 20.498 5.797C20.8707 5.85767 21.239 5.97467 21.603 6.148L21.317 7.136C20.9443 6.96267 20.6063 6.84133 20.303 6.772C20.0083 6.694 19.705 6.655 19.393 6.655C18.899 6.655 18.509 6.76333 18.223 6.98C17.937 7.19667 17.794 7.5 17.794 7.89C17.794 8.21933 17.898 8.48367 18.106 8.683C18.3227 8.88233 18.6737 9.05567 19.159 9.203L19.978 9.463C20.7233 9.697 21.2477 10.0177 21.551 10.425C21.863 10.8237 22.019 11.2743 22.019 11.777C22.019 12.1323 21.9453 12.4573 21.798 12.752C21.6593 13.038 21.46 13.285 21.2 13.493C20.9487 13.6923 20.6497 13.8483 20.303 13.961C19.9563 14.065 19.575 14.117 19.159 14.117C18.743 14.117 18.3183 14.078 17.885 14C17.4603 13.9307 17.0357 13.7963 16.611 13.597L16.897 12.622C17.2697 12.804 17.6337 12.9383 17.989 13.025C18.3443 13.1117 18.717 13.155 19.107 13.155C19.575 13.155 19.9737 13.0467 20.303 12.83C20.6323 12.6133 20.797 12.2927 20.797 11.868C20.797 11.712 20.771 11.569 20.719 11.439C20.6757 11.3003 20.5933 11.1703 20.472 11.049C20.3593 10.9277 20.2033 10.815 20.004 10.711C19.8047 10.607 19.5533 10.5073 19.25 10.412L18.431 10.152C17.833 9.96133 17.3737 9.70133 17.053 9.372C16.7323 9.04267 16.572 8.59633 16.572 8.033C16.572 7.31367 16.806 6.746 17.274 6.33C17.7507 5.90533 18.4397 5.693 19.341 5.693ZM23.5125 8.436C23.7205 8.332 23.9155 8.241 24.0975 8.163C24.2795 8.07633 24.4615 8.007 24.6435 7.955C24.8255 7.903 25.0118 7.864 25.2025 7.838C25.3931 7.812 25.6011 7.799 25.8265 7.799C26.1645 7.799 26.4721 7.838 26.7495 7.916C27.0355 7.98533 27.2781 8.10667 27.4775 8.28C27.6855 8.45333 27.8458 8.683 27.9585 8.969C28.0711 9.24633 28.1275 9.59733 28.1275 10.022V14H27.1785L27.0355 13.324H27.0095C26.7408 13.61 26.4461 13.8137 26.1255 13.935C25.8048 14.0563 25.4495 14.117 25.0595 14.117C24.7648 14.117 24.4918 14.078 24.2405 14C23.9978 13.9133 23.7855 13.7963 23.6035 13.649C23.4215 13.493 23.2785 13.3067 23.1745 13.09C23.0791 12.8733 23.0315 12.6307 23.0315 12.362C23.0315 11.7207 23.2828 11.2353 23.7855 10.906C24.2968 10.568 24.9685 10.399 25.8005 10.399H26.9705V9.879C26.9705 9.437 26.8578 9.138 26.6325 8.982C26.4071 8.81733 26.1038 8.735 25.7225 8.735C25.4971 8.735 25.2371 8.774 24.9425 8.852C24.6565 8.92133 24.3271 9.06 23.9545 9.268L23.5125 8.436ZM26.9835 11.179L26.0215 11.205C25.3715 11.2223 24.9078 11.3393 24.6305 11.556C24.3618 11.764 24.2275 12.0197 24.2275 12.323C24.2275 12.505 24.2578 12.661 24.3185 12.791C24.3791 12.9123 24.4571 13.0077 24.5525 13.077C24.6565 13.1463 24.7735 13.1983 24.9035 13.233C25.0421 13.259 25.1851 13.272 25.3325 13.272C25.6185 13.272 25.9088 13.207 26.2035 13.077C26.4981 12.9383 26.7581 12.7217 26.9835 12.427V11.179ZM33.5014 7.89H34.7234L32.4484 14H31.3304L29.0294 7.89H30.2644L31.6424 12.089L31.8764 13.051H31.9284L32.1494 12.102L33.5014 7.89ZM40.835 11.075H36.454V11.127C36.454 11.803 36.636 12.323 37 12.687C37.3726 13.051 37.8753 13.233 38.508 13.233C38.8373 13.233 39.1276 13.207 39.379 13.155C39.639 13.103 39.9206 13.0163 40.224 12.895L40.458 13.74C40.2066 13.8527 39.9076 13.9437 39.561 14.013C39.223 14.0823 38.859 14.117 38.469 14.117C38.027 14.117 37.611 14.0563 37.221 13.935C36.8396 13.8137 36.5016 13.6273 36.207 13.376C35.9123 13.116 35.6783 12.7867 35.505 12.388C35.3403 11.9893 35.258 11.5127 35.258 10.958C35.258 10.4813 35.3273 10.048 35.466 9.658C35.6133 9.268 35.817 8.93867 36.077 8.67C36.337 8.39267 36.649 8.18033 37.013 8.033C37.3856 7.877 37.8016 7.799 38.261 7.799C38.651 7.799 39.002 7.864 39.314 7.994C39.6346 8.124 39.9076 8.306 40.133 8.54C40.3583 8.774 40.5316 9.05567 40.653 9.385C40.7743 9.71433 40.835 10.0783 40.835 10.477V11.075ZM39.652 10.256C39.652 10.0307 39.6216 9.82267 39.561 9.632C39.509 9.43267 39.4223 9.25933 39.301 9.112C39.1883 8.96467 39.041 8.84767 38.859 8.761C38.677 8.67433 38.456 8.631 38.196 8.631C37.7193 8.631 37.3293 8.78267 37.026 9.086C36.7313 9.38933 36.5493 9.788 36.48 10.282L39.652 10.256Z" fill="white"/>
<defs>
<linearGradient id="paint0_linear_81_499" x1="0" y1="0" x2="61.1541" y2="13.0947" gradientUnits="userSpaceOnUse">
<stop stop-color="#4BA67B"/>
<stop offset="1" stop-color="#F2A852" stop-opacity="0.7"/>
</linearGradient>
</defs>
</svg>
