<svg width="24" height="24" viewBox="0 0 24 24" fill="none" xmlns="http://www.w3.org/2000/svg">
<g clip-path="url(#clip0_81_610)">
<path d="M24 11.617C23.9998 13.4243 23.282 15.1574 22.0045 16.4357C20.727 17.714 18.9942 18.4327 17.187 18.434H6.81602C5.00804 18.434 3.27411 17.7158 1.99568 16.4374C0.717241 15.159 -0.000976562 13.425 -0.000976562 11.617C-0.000976562 9.80907 0.717241 8.07514 1.99568 6.7967C3.27411 5.51827 5.00804 4.80005 6.81602 4.80005H17.182C18.9892 4.80031 20.7224 5.51807 22.0007 6.79558C23.2789 8.07309 23.9977 9.80584 23.999 11.613L24 11.617ZM17.183 7.07205C16.5866 7.07205 15.9959 7.18953 15.4449 7.41779C14.8938 7.64604 14.3931 7.98061 13.9713 8.40237C13.5496 8.82413 13.215 9.32484 12.9868 9.8759C12.7585 10.427 12.641 11.0176 12.641 11.614C12.641 12.2105 12.7585 12.8011 12.9868 13.3522C13.215 13.9033 13.5496 14.404 13.9713 14.8257C14.3931 15.2475 14.8938 15.5821 15.4449 15.8103C15.9959 16.0386 16.5866 16.156 17.183 16.156C17.7795 16.1562 18.3701 16.0388 18.9212 15.8107C19.4724 15.5826 19.9731 15.2481 20.395 14.8264C20.8169 14.4048 21.1515 13.9041 21.3799 13.3531C21.6083 12.8021 21.7259 12.2115 21.726 11.615C21.7262 11.0186 21.6088 10.4279 21.3807 9.87682C21.1525 9.32571 20.8181 8.82493 20.3964 8.40308C19.9747 7.98122 19.4741 7.64655 18.9231 7.41817C18.3721 7.18979 17.7815 7.07218 17.185 7.07205H17.183Z" fill="url(#paint0_linear_81_610)"/>
<path d="M24 11.617C23.9998 13.4243 23.282 15.1574 22.0045 16.4357C20.727 17.714 18.9942 18.4327 17.187 18.434H6.81602C5.00804 18.434 3.27411 17.7158 1.99568 16.4374C0.717241 15.159 -0.000976562 13.425 -0.000976562 11.617C-0.000976562 9.80907 0.717241 8.07514 1.99568 6.7967C3.27411 5.51827 5.00804 4.80005 6.81602 4.80005H17.182C18.9892 4.80031 20.7224 5.51807 22.0007 6.79558C23.2789 8.07309 23.9977 9.80584 23.999 11.613L24 11.617ZM17.183 7.07205C16.5866 7.07205 15.9959 7.18953 15.4449 7.41779C14.8938 7.64604 14.3931 7.98061 13.9713 8.40237C13.5496 8.82413 13.215 9.32484 12.9868 9.8759C12.7585 10.427 12.641 11.0176 12.641 11.614C12.641 12.2105 12.7585 12.8011 12.9868 13.3522C13.215 13.9033 13.5496 14.404 13.9713 14.8257C14.3931 15.2475 14.8938 15.5821 15.4449 15.8103C15.9959 16.0386 16.5866 16.156 17.183 16.156C17.7795 16.1562 18.3701 16.0388 18.9212 15.8107C19.4724 15.5826 19.9731 15.2481 20.395 14.8264C20.8169 14.4048 21.1515 13.9041 21.3799 13.3531C21.6083 12.8021 21.7259 12.2115 21.726 11.615C21.7262 11.0186 21.6088 10.4279 21.3807 9.87682C21.1525 9.32571 20.8181 8.82493 20.3964 8.40308C19.9747 7.98122 19.4741 7.64655 18.9231 7.41817C18.3721 7.18979 17.7815 7.07218 17.185 7.07205H17.183Z" fill="black" fill-opacity="0.2"/>
</g>
<defs>
<linearGradient id="paint0_linear_81_610" x1="-0.000976563" y1="4.80005" x2="25.5569" y2="8.22904" gradientUnits="userSpaceOnUse">
<stop stop-color="#4BA67B"/>
<stop offset="1" stop-color="#F2A852" stop-opacity="0.7"/>
</linearGradient>
<clipPath id="clip0_81_610">
<rect width="24" height="24" fill="white"/>
</clipPath>
</defs>
</svg>
